ISO-10303-21;
HEADER;
FILE_DESCRIPTION(('FreeCAD Model'),'2;1');
FILE_NAME('Open CASCADE Shape Model','2026-08-01T17:36:01',(''),(''),
  'Open CASCADE STEP processor 7.8','FreeCAD','Unknown');
FILE_SCHEMA(('AUTOMOTIVE_DESIGN { 1 0 10303 214 1 1 1 1 }'));
ENDSEC;
DATA;
#1 = APPLICATION_PROTOCOL_DEFINITION('international standard',
  'automotive_design',2000,#2);
#2 = APPLICATION_CONTEXT(
  'core data for automotive mechanical design processes');
#3 = SHAPE_DEFINITION_REPRESENTATION(#4,#10);
#4 = PRODUCT_DEFINITION_SHAPE('','',#5);
#5 = PRODUCT_DEFINITION('design','',#6,#9);
#6 = PRODUCT_DEFINITION_FORMATION('','',#7);
#7 = PRODUCT('Fillet','Fillet','',(#8));
#8 = PRODUCT_CONTEXT('',#2,'mechanical');
#9 = PRODUCT_DEFINITION_CONTEXT('part definition',#2,'design');
#10 = ADVANCED_BREP_SHAPE_REPRESENTATION('',(#11,#15),#888);
#11 = AXIS2_PLACEMENT_3D('',#12,#13,#14);
#12 = CARTESIAN_POINT('',(0.,0.,0.));
#13 = DIRECTION('',(0.,0.,1.));
#14 = DIRECTION('',(1.,0.,-0.));
#15 = MANIFOLD_SOLID_BREP('',#16);
#16 = CLOSED_SHELL('',(#17,#70,#101,#126,#221,#245,#270,#299,#408,#453,
    #469,#479,#522,#537,#580,#595,#638,#655,#672,#694,#711,#728,#740,
    #757,#774,#791,#808,#825,#837,#854,#871));
#17 = ADVANCED_FACE('',(#18,#54),#65,.T.);
#18 = FACE_BOUND('',#19,.T.);
#19 = EDGE_LOOP('',(#20,#30,#39,#47));
#20 = ORIENTED_EDGE('',*,*,#21,.F.);
#21 = EDGE_CURVE('',#22,#24,#26,.T.);
#22 = VERTEX_POINT('',#23);
#23 = CARTESIAN_POINT('',(0.999999999999,-13.46291201783,4.));
#24 = VERTEX_POINT('',#25);
#25 = CARTESIAN_POINT('',(1.,-2.,4.));
#26 = LINE('',#27,#28);
#27 = CARTESIAN_POINT('',(0.999999999999,-13.46291201783,4.));
#28 = VECTOR('',#29,1.);
#29 = DIRECTION('',(4.755205281854E-14,1.,0.));
#30 = ORIENTED_EDGE('',*,*,#31,.T.);
#31 = EDGE_CURVE('',#22,#32,#34,.T.);
#32 = VERTEX_POINT('',#33);
#33 = CARTESIAN_POINT('',(13.462912017836,-1.,4.));
#34 = CIRCLE('',#35,13.5);
#35 = AXIS2_PLACEMENT_3D('',#36,#37,#38);
#36 = CARTESIAN_POINT('',(0.,0.,4.));
#37 = DIRECTION('',(0.,0.,1.));
#38 = DIRECTION('',(1.,0.,0.));
#39 = ORIENTED_EDGE('',*,*,#40,.F.);
#40 = EDGE_CURVE('',#41,#32,#43,.T.);
#41 = VERTEX_POINT('',#42);
#42 = CARTESIAN_POINT('',(2.,-1.,4.));
#43 = LINE('',#44,#45);
#44 = CARTESIAN_POINT('',(1.,-1.,4.));
#45 = VECTOR('',#46,1.);
#46 = DIRECTION('',(1.,1.514396586578E-16,0.));
#47 = ORIENTED_EDGE('',*,*,#48,.F.);
#48 = EDGE_CURVE('',#24,#41,#49,.T.);
#49 = CIRCLE('',#50,1.);
#50 = AXIS2_PLACEMENT_3D('',#51,#52,#53);
#51 = CARTESIAN_POINT('',(2.,-2.,4.));
#52 = DIRECTION('',(-0.,-0.,-1.));
#53 = DIRECTION('',(0.,-1.,0.));
#54 = FACE_BOUND('',#55,.T.);
#55 = EDGE_LOOP('',(#56));
#56 = ORIENTED_EDGE('',*,*,#57,.F.);
#57 = EDGE_CURVE('',#58,#58,#60,.T.);
#58 = VERTEX_POINT('',#59);
#59 = CARTESIAN_POINT('',(7.256855173808,-5.656853325177,4.));
#60 = CIRCLE('',#61,1.6);
#61 = AXIS2_PLACEMENT_3D('',#62,#63,#64);
#62 = CARTESIAN_POINT('',(5.656855173808,-5.656853325177,4.));
#63 = DIRECTION('',(0.,0.,1.));
#64 = DIRECTION('',(1.,0.,0.));
#65 = PLANE('',#66);
#66 = AXIS2_PLACEMENT_3D('',#67,#68,#69);
#67 = CARTESIAN_POINT('',(5.945347213127E-07,-5.583141244665E-16,4.));
#68 = DIRECTION('',(0.,0.,1.));
#69 = DIRECTION('',(1.,0.,0.));
#70 = ADVANCED_FACE('',(#71),#96,.F.);
#71 = FACE_BOUND('',#72,.F.);
#72 = EDGE_LOOP('',(#73,#74,#82,#90));
#73 = ORIENTED_EDGE('',*,*,#21,.F.);
#74 = ORIENTED_EDGE('',*,*,#75,.T.);
#75 = EDGE_CURVE('',#22,#76,#78,.T.);
#76 = VERTEX_POINT('',#77);
#77 = CARTESIAN_POINT('',(1.,-4.,100.));
#78 = LINE('',#79,#80);
#79 = CARTESIAN_POINT('',(1.,-13.46291201783,4.));
#80 = VECTOR('',#81,1.);
#81 = DIRECTION('',(0.,9.809657753124E-02,0.99517689959));
#82 = ORIENTED_EDGE('',*,*,#83,.T.);
#83 = EDGE_CURVE('',#76,#84,#86,.T.);
#84 = VERTEX_POINT('',#85);
#85 = CARTESIAN_POINT('',(1.,-2.,100.));
#86 = LINE('',#87,#88);
#87 = CARTESIAN_POINT('',(0.999999999999,-13.46291201783,100.));
#88 = VECTOR('',#89,1.);
#89 = DIRECTION('',(4.755205281854E-14,1.,0.));
#90 = ORIENTED_EDGE('',*,*,#91,.F.);
#91 = EDGE_CURVE('',#24,#84,#92,.T.);
#92 = LINE('',#93,#94);
#93 = CARTESIAN_POINT('',(1.,-2.,4.));
#94 = VECTOR('',#95,1.);
#95 = DIRECTION('',(0.,0.,1.));
#96 = PLANE('',#97);
#97 = AXIS2_PLACEMENT_3D('',#98,#99,#100);
#98 = CARTESIAN_POINT('',(0.999999999999,-13.46291201783,4.));
#99 = DIRECTION('',(-1.,4.755205281854E-14,0.));
#100 = DIRECTION('',(4.755205281854E-14,1.,0.));
#101 = ADVANCED_FACE('',(#102),#121,.F.);
#102 = FACE_BOUND('',#103,.T.);
#103 = EDGE_LOOP('',(#104,#105,#113,#120));
#104 = ORIENTED_EDGE('',*,*,#48,.T.);
#105 = ORIENTED_EDGE('',*,*,#106,.T.);
#106 = EDGE_CURVE('',#41,#107,#109,.T.);
#107 = VERTEX_POINT('',#108);
#108 = CARTESIAN_POINT('',(2.,-1.,100.));
#109 = LINE('',#110,#111);
#110 = CARTESIAN_POINT('',(2.,-1.,4.));
#111 = VECTOR('',#112,1.);
#112 = DIRECTION('',(0.,0.,1.));
#113 = ORIENTED_EDGE('',*,*,#114,.F.);
#114 = EDGE_CURVE('',#84,#107,#115,.T.);
#115 = CIRCLE('',#116,1.);
#116 = AXIS2_PLACEMENT_3D('',#117,#118,#119);
#117 = CARTESIAN_POINT('',(2.,-2.,100.));
#118 = DIRECTION('',(-0.,-0.,-1.));
#119 = DIRECTION('',(0.,-1.,0.));
#120 = ORIENTED_EDGE('',*,*,#91,.F.);
#121 = CYLINDRICAL_SURFACE('',#122,1.);
#122 = AXIS2_PLACEMENT_3D('',#123,#124,#125);
#123 = CARTESIAN_POINT('',(2.,-2.,4.));
#124 = DIRECTION('',(0.,0.,1.));
#125 = DIRECTION('',(-1.,4.755205281854E-14,0.));
#126 = ADVANCED_FACE('',(#127),#216,.T.);
#127 = FACE_BOUND('',#128,.F.);
#128 = EDGE_LOOP('',(#129,#138,#146,#155,#164,#173,#182,#191,#200,#207,
    #208,#215));
#129 = ORIENTED_EDGE('',*,*,#130,.F.);
#130 = EDGE_CURVE('',#131,#131,#133,.T.);
#131 = VERTEX_POINT('',#132);
#132 = CARTESIAN_POINT('',(13.5,0.,0.));
#133 = CIRCLE('',#134,13.5);
#134 = AXIS2_PLACEMENT_3D('',#135,#136,#137);
#135 = CARTESIAN_POINT('',(0.,0.,0.));
#136 = DIRECTION('',(0.,0.,1.));
#137 = DIRECTION('',(1.,0.,0.));
#138 = ORIENTED_EDGE('',*,*,#139,.T.);
#139 = EDGE_CURVE('',#131,#140,#142,.T.);
#140 = VERTEX_POINT('',#141);
#141 = CARTESIAN_POINT('',(13.5,0.,4.));
#142 = LINE('',#143,#144);
#143 = CARTESIAN_POINT('',(13.5,0.,0.));
#144 = VECTOR('',#145,1.);
#145 = DIRECTION('',(0.,0.,1.));
#146 = ORIENTED_EDGE('',*,*,#147,.T.);
#147 = EDGE_CURVE('',#140,#148,#150,.T.);
#148 = VERTEX_POINT('',#149);
#149 = CARTESIAN_POINT('',(13.462912017836,1.,4.));
#150 = CIRCLE('',#151,13.5);
#151 = AXIS2_PLACEMENT_3D('',#152,#153,#154);
#152 = CARTESIAN_POINT('',(0.,0.,4.));
#153 = DIRECTION('',(0.,0.,1.));
#154 = DIRECTION('',(1.,0.,0.));
#155 = ORIENTED_EDGE('',*,*,#156,.T.);
#156 = EDGE_CURVE('',#148,#157,#159,.T.);
#157 = VERTEX_POINT('',#158);
#158 = CARTESIAN_POINT('',(1.,13.462912017836,4.));
#159 = CIRCLE('',#160,13.5);
#160 = AXIS2_PLACEMENT_3D('',#161,#162,#163);
#161 = CARTESIAN_POINT('',(0.,0.,4.));
#162 = DIRECTION('',(0.,0.,1.));
#163 = DIRECTION('',(1.,0.,0.));
#164 = ORIENTED_EDGE('',*,*,#165,.T.);
#165 = EDGE_CURVE('',#157,#166,#168,.T.);
#166 = VERTEX_POINT('',#167);
#167 = CARTESIAN_POINT('',(-1.,13.462912017836,4.));
#168 = CIRCLE('',#169,13.5);
#169 = AXIS2_PLACEMENT_3D('',#170,#171,#172);
#170 = CARTESIAN_POINT('',(0.,0.,4.));
#171 = DIRECTION('',(0.,0.,1.));
#172 = DIRECTION('',(1.,0.,0.));
#173 = ORIENTED_EDGE('',*,*,#174,.T.);
#174 = EDGE_CURVE('',#166,#175,#177,.T.);
#175 = VERTEX_POINT('',#176);
#176 = CARTESIAN_POINT('',(-13.46291201783,0.999999999991,4.));
#177 = CIRCLE('',#178,13.5);
#178 = AXIS2_PLACEMENT_3D('',#179,#180,#181);
#179 = CARTESIAN_POINT('',(0.,0.,4.));
#180 = DIRECTION('',(0.,0.,1.));
#181 = DIRECTION('',(1.,0.,0.));
#182 = ORIENTED_EDGE('',*,*,#183,.T.);
#183 = EDGE_CURVE('',#175,#184,#186,.T.);
#184 = VERTEX_POINT('',#185);
#185 = CARTESIAN_POINT('',(-13.46291201783,-0.999999999991,4.));
#186 = CIRCLE('',#187,13.5);
#187 = AXIS2_PLACEMENT_3D('',#188,#189,#190);
#188 = CARTESIAN_POINT('',(0.,0.,4.));
#189 = DIRECTION('',(0.,0.,1.));
#190 = DIRECTION('',(1.,0.,0.));
#191 = ORIENTED_EDGE('',*,*,#192,.T.);
#192 = EDGE_CURVE('',#184,#193,#195,.T.);
#193 = VERTEX_POINT('',#194);
#194 = CARTESIAN_POINT('',(-0.999999999999,-13.46291201783,4.));
#195 = CIRCLE('',#196,13.5);
#196 = AXIS2_PLACEMENT_3D('',#197,#198,#199);
#197 = CARTESIAN_POINT('',(0.,0.,4.));
#198 = DIRECTION('',(0.,0.,1.));
#199 = DIRECTION('',(1.,0.,0.));
#200 = ORIENTED_EDGE('',*,*,#201,.T.);
#201 = EDGE_CURVE('',#193,#22,#202,.T.);
#202 = CIRCLE('',#203,13.5);
#203 = AXIS2_PLACEMENT_3D('',#204,#205,#206);
#204 = CARTESIAN_POINT('',(0.,0.,4.));
#205 = DIRECTION('',(0.,0.,1.));
#206 = DIRECTION('',(1.,0.,0.));
#207 = ORIENTED_EDGE('',*,*,#31,.T.);
#208 = ORIENTED_EDGE('',*,*,#209,.T.);
#209 = EDGE_CURVE('',#32,#140,#210,.T.);
#210 = CIRCLE('',#211,13.5);
#211 = AXIS2_PLACEMENT_3D('',#212,#213,#214);
#212 = CARTESIAN_POINT('',(0.,0.,4.));
#213 = DIRECTION('',(0.,0.,1.));
#214 = DIRECTION('',(1.,0.,0.));
#215 = ORIENTED_EDGE('',*,*,#139,.F.);
#216 = CYLINDRICAL_SURFACE('',#217,13.5);
#217 = AXIS2_PLACEMENT_3D('',#218,#219,#220);
#218 = CARTESIAN_POINT('',(0.,0.,0.));
#219 = DIRECTION('',(-0.,-0.,-1.));
#220 = DIRECTION('',(1.,0.,0.));
#221 = ADVANCED_FACE('',(#222),#240,.F.);
#222 = FACE_BOUND('',#223,.F.);
#223 = EDGE_LOOP('',(#224,#225,#226,#234));
#224 = ORIENTED_EDGE('',*,*,#40,.F.);
#225 = ORIENTED_EDGE('',*,*,#106,.T.);
#226 = ORIENTED_EDGE('',*,*,#227,.T.);
#227 = EDGE_CURVE('',#107,#228,#230,.T.);
#228 = VERTEX_POINT('',#229);
#229 = CARTESIAN_POINT('',(4.,-1.,100.));
#230 = LINE('',#231,#232);
#231 = CARTESIAN_POINT('',(1.,-1.,100.));
#232 = VECTOR('',#233,1.);
#233 = DIRECTION('',(1.,1.514396586578E-16,0.));
#234 = ORIENTED_EDGE('',*,*,#235,.F.);
#235 = EDGE_CURVE('',#32,#228,#236,.T.);
#236 = LINE('',#237,#238);
#237 = CARTESIAN_POINT('',(13.462912017836,-1.,4.));
#238 = VECTOR('',#239,1.);
#239 = DIRECTION('',(-9.809657753124E-02,2.209736614999E-16,
    0.99517689959));
#240 = PLANE('',#241);
#241 = AXIS2_PLACEMENT_3D('',#242,#243,#244);
#242 = CARTESIAN_POINT('',(1.,-1.,4.));
#243 = DIRECTION('',(-1.514396586578E-16,1.,0.));
#244 = DIRECTION('',(1.,1.514396586578E-16,0.));
#245 = ADVANCED_FACE('',(#246),#265,.F.);
#246 = FACE_BOUND('',#247,.T.);
#247 = EDGE_LOOP('',(#248,#256,#257,#258));
#248 = ORIENTED_EDGE('',*,*,#249,.T.);
#249 = EDGE_CURVE('',#250,#58,#252,.T.);
#250 = VERTEX_POINT('',#251);
#251 = CARTESIAN_POINT('',(7.256855173808,-5.656853325177,0.));
#252 = LINE('',#253,#254);
#253 = CARTESIAN_POINT('',(7.256855173808,-5.656853325177,0.));
#254 = VECTOR('',#255,1.);
#255 = DIRECTION('',(0.,0.,1.));
#256 = ORIENTED_EDGE('',*,*,#57,.T.);
#257 = ORIENTED_EDGE('',*,*,#249,.F.);
#258 = ORIENTED_EDGE('',*,*,#259,.F.);
#259 = EDGE_CURVE('',#250,#250,#260,.T.);
#260 = CIRCLE('',#261,1.6);
#261 = AXIS2_PLACEMENT_3D('',#262,#263,#264);
#262 = CARTESIAN_POINT('',(5.656855173808,-5.656853325177,0.));
#263 = DIRECTION('',(0.,0.,1.));
#264 = DIRECTION('',(1.,0.,0.));
#265 = CYLINDRICAL_SURFACE('',#266,1.6);
#266 = AXIS2_PLACEMENT_3D('',#267,#268,#269);
#267 = CARTESIAN_POINT('',(5.656855173808,-5.656853325177,0.));
#268 = DIRECTION('',(-0.,-0.,-1.));
#269 = DIRECTION('',(1.,0.,0.));
#270 = ADVANCED_FACE('',(#271),#294,.F.);
#271 = FACE_BOUND('',#272,.F.);
#272 = EDGE_LOOP('',(#273,#274,#280,#288));
#273 = ORIENTED_EDGE('',*,*,#75,.F.);
#274 = ORIENTED_EDGE('',*,*,#275,.T.);
#275 = EDGE_CURVE('',#22,#193,#276,.T.);
#276 = LINE('',#277,#278);
#277 = CARTESIAN_POINT('',(1.,-13.46291201783,4.));
#278 = VECTOR('',#279,1.);
#279 = DIRECTION('',(-1.,-0.,-0.));
#280 = ORIENTED_EDGE('',*,*,#281,.F.);
#281 = EDGE_CURVE('',#282,#193,#284,.T.);
#282 = VERTEX_POINT('',#283);
#283 = CARTESIAN_POINT('',(-1.,-4.,100.));
#284 = LINE('',#285,#286);
#285 = CARTESIAN_POINT('',(-0.999999999999,-13.46291201783,4.));
#286 = VECTOR('',#287,1.);
#287 = DIRECTION('',(4.675180021177E-15,-9.809657753124E-02,
    -0.99517689959));
#288 = ORIENTED_EDGE('',*,*,#289,.F.);
#289 = EDGE_CURVE('',#76,#282,#290,.T.);
#290 = LINE('',#291,#292);
#291 = CARTESIAN_POINT('',(1.,-4.,100.));
#292 = VECTOR('',#293,1.);
#293 = DIRECTION('',(-1.,-0.,-0.));
#294 = PLANE('',#295);
#295 = AXIS2_PLACEMENT_3D('',#296,#297,#298);
#296 = CARTESIAN_POINT('',(1.,-13.46291201783,4.));
#297 = DIRECTION('',(0.,0.99517689959,-9.809657753124E-02));
#298 = DIRECTION('',(0.,9.809657753124E-02,0.99517689959));
#299 = ADVANCED_FACE('',(#300),#403,.T.);
#300 = FACE_BOUND('',#301,.T.);
#301 = EDGE_LOOP('',(#302,#312,#320,#328,#337,#345,#353,#361,#370,#376,
    #377,#378,#379,#380,#388,#396));
#302 = ORIENTED_EDGE('',*,*,#303,.F.);
#303 = EDGE_CURVE('',#304,#306,#308,.T.);
#304 = VERTEX_POINT('',#305);
#305 = CARTESIAN_POINT('',(1.,4.,100.));
#306 = VERTEX_POINT('',#307);
#307 = CARTESIAN_POINT('',(1.,2.,100.));
#308 = LINE('',#309,#310);
#309 = CARTESIAN_POINT('',(1.,13.462912017836,100.));
#310 = VECTOR('',#311,1.);
#311 = DIRECTION('',(-1.781643043032E-17,-1.,0.));
#312 = ORIENTED_EDGE('',*,*,#313,.T.);
#313 = EDGE_CURVE('',#304,#314,#316,.T.);
#314 = VERTEX_POINT('',#315);
#315 = CARTESIAN_POINT('',(-1.,4.,100.));
#316 = LINE('',#317,#318);
#317 = CARTESIAN_POINT('',(1.,4.,100.));
#318 = VECTOR('',#319,1.);
#319 = DIRECTION('',(-1.,-0.,-0.));
#320 = ORIENTED_EDGE('',*,*,#321,.T.);
#321 = EDGE_CURVE('',#314,#322,#324,.T.);
#322 = VERTEX_POINT('',#323);
#323 = CARTESIAN_POINT('',(-1.,1.999999999999,100.));
#324 = LINE('',#325,#326);
#325 = CARTESIAN_POINT('',(-1.,13.462912017836,100.));
#326 = VECTOR('',#327,1.);
#327 = DIRECTION('',(-1.068985825819E-16,-1.,0.));
#328 = ORIENTED_EDGE('',*,*,#329,.T.);
#329 = EDGE_CURVE('',#322,#330,#332,.T.);
#330 = VERTEX_POINT('',#331);
#331 = CARTESIAN_POINT('',(-1.999999999999,0.999999999999,100.));
#332 = CIRCLE('',#333,1.);
#333 = AXIS2_PLACEMENT_3D('',#334,#335,#336);
#334 = CARTESIAN_POINT('',(-2.,1.999999999999,100.));
#335 = DIRECTION('',(-0.,-0.,-1.));
#336 = DIRECTION('',(0.,-1.,0.));
#337 = ORIENTED_EDGE('',*,*,#338,.F.);
#338 = EDGE_CURVE('',#339,#330,#341,.T.);
#339 = VERTEX_POINT('',#340);
#340 = CARTESIAN_POINT('',(-4.,0.999999999998,100.));
#341 = LINE('',#342,#343);
#342 = CARTESIAN_POINT('',(-13.46291201783,0.999999999991,100.));
#343 = VECTOR('',#344,1.);
#344 = DIRECTION('',(1.,7.257790182249E-13,0.));
#345 = ORIENTED_EDGE('',*,*,#346,.F.);
#346 = EDGE_CURVE('',#347,#339,#349,.T.);
#347 = VERTEX_POINT('',#348);
#348 = CARTESIAN_POINT('',(-4.,-1.,100.));
#349 = LINE('',#350,#351);
#350 = CARTESIAN_POINT('',(-4.,-1.,100.));
#351 = VECTOR('',#352,1.);
#352 = DIRECTION('',(0.,1.,-2.22044604925E-16));
#353 = ORIENTED_EDGE('',*,*,#354,.T.);
#354 = EDGE_CURVE('',#347,#355,#357,.T.);
#355 = VERTEX_POINT('',#356);
#356 = CARTESIAN_POINT('',(-1.999999999999,-0.999999999999,100.));
#357 = LINE('',#358,#359);
#358 = CARTESIAN_POINT('',(-13.46291201783,-0.999999999991,100.));
#359 = VECTOR('',#360,1.);
#360 = DIRECTION('',(1.,-7.255206799836E-13,0.));
#361 = ORIENTED_EDGE('',*,*,#362,.T.);
#362 = EDGE_CURVE('',#355,#363,#365,.T.);
#363 = VERTEX_POINT('',#364);
#364 = CARTESIAN_POINT('',(-1.,-1.999999999999,100.));
#365 = CIRCLE('',#366,1.);
#366 = AXIS2_PLACEMENT_3D('',#367,#368,#369);
#367 = CARTESIAN_POINT('',(-2.,-1.999999999999,100.));
#368 = DIRECTION('',(-0.,-0.,-1.));
#369 = DIRECTION('',(0.,-1.,0.));
#370 = ORIENTED_EDGE('',*,*,#371,.F.);
#371 = EDGE_CURVE('',#282,#363,#372,.T.);
#372 = LINE('',#373,#374);
#373 = CARTESIAN_POINT('',(-0.999999999999,-13.46291201783,100.));
#374 = VECTOR('',#375,1.);
#375 = DIRECTION('',(-4.765895140112E-14,1.,0.));
#376 = ORIENTED_EDGE('',*,*,#289,.F.);
#377 = ORIENTED_EDGE('',*,*,#83,.T.);
#378 = ORIENTED_EDGE('',*,*,#114,.T.);
#379 = ORIENTED_EDGE('',*,*,#227,.T.);
#380 = ORIENTED_EDGE('',*,*,#381,.T.);
#381 = EDGE_CURVE('',#228,#382,#384,.T.);
#382 = VERTEX_POINT('',#383);
#383 = CARTESIAN_POINT('',(4.,1.,100.));
#384 = LINE('',#385,#386);
#385 = CARTESIAN_POINT('',(4.,-1.,100.));
#386 = VECTOR('',#387,1.);
#387 = DIRECTION('',(0.,1.,-2.22044604925E-16));
#388 = ORIENTED_EDGE('',*,*,#389,.F.);
#389 = EDGE_CURVE('',#390,#382,#392,.T.);
#390 = VERTEX_POINT('',#391);
#391 = CARTESIAN_POINT('',(2.,1.,100.));
#392 = LINE('',#393,#394);
#393 = CARTESIAN_POINT('',(1.,1.,100.));
#394 = VECTOR('',#395,1.);
#395 = DIRECTION('',(1.,-1.158067977971E-16,0.));
#396 = ORIENTED_EDGE('',*,*,#397,.T.);
#397 = EDGE_CURVE('',#390,#306,#398,.T.);
#398 = CIRCLE('',#399,1.);
#399 = AXIS2_PLACEMENT_3D('',#400,#401,#402);
#400 = CARTESIAN_POINT('',(2.,2.,100.));
#401 = DIRECTION('',(-0.,-0.,-1.));
#402 = DIRECTION('',(0.,-1.,0.));
#403 = PLANE('',#404);
#404 = AXIS2_PLACEMENT_3D('',#405,#406,#407);
#405 = CARTESIAN_POINT('',(-1.90103455279E-09,-3.977552684523E-09,100.)
  );
#406 = DIRECTION('',(0.,0.,1.));
#407 = DIRECTION('',(1.,0.,0.));
#408 = ADVANCED_FACE('',(#409,#412,#423,#434,#437),#448,.F.);
#409 = FACE_BOUND('',#410,.F.);
#410 = EDGE_LOOP('',(#411));
#411 = ORIENTED_EDGE('',*,*,#130,.T.);
#412 = FACE_BOUND('',#413,.T.);
#413 = EDGE_LOOP('',(#414));
#414 = ORIENTED_EDGE('',*,*,#415,.T.);
#415 = EDGE_CURVE('',#416,#416,#418,.T.);
#416 = VERTEX_POINT('',#417);
#417 = CARTESIAN_POINT('',(7.256855173808,5.656853325177,0.));
#418 = CIRCLE('',#419,1.6);
#419 = AXIS2_PLACEMENT_3D('',#420,#421,#422);
#420 = CARTESIAN_POINT('',(5.656855173808,5.656853325177,0.));
#421 = DIRECTION('',(0.,0.,1.));
#422 = DIRECTION('',(1.,0.,0.));
#423 = FACE_BOUND('',#424,.T.);
#424 = EDGE_LOOP('',(#425));
#425 = ORIENTED_EDGE('',*,*,#426,.T.);
#426 = EDGE_CURVE('',#427,#427,#429,.T.);
#427 = VERTEX_POINT('',#428);
#428 = CARTESIAN_POINT('',(-4.056851476545,-5.656857022438,0.));
#429 = CIRCLE('',#430,1.6);
#430 = AXIS2_PLACEMENT_3D('',#431,#432,#433);
#431 = CARTESIAN_POINT('',(-5.656851476545,-5.656857022438,0.));
#432 = DIRECTION('',(0.,0.,1.));
#433 = DIRECTION('',(1.,0.,0.));
#434 = FACE_BOUND('',#435,.T.);
#435 = EDGE_LOOP('',(#436));
#436 = ORIENTED_EDGE('',*,*,#259,.T.);
#437 = FACE_BOUND('',#438,.T.);
#438 = EDGE_LOOP('',(#439));
#439 = ORIENTED_EDGE('',*,*,#440,.T.);
#440 = EDGE_CURVE('',#441,#441,#443,.T.);
#441 = VERTEX_POINT('',#442);
#442 = CARTESIAN_POINT('',(-4.056851476545,5.656857022438,0.));
#443 = CIRCLE('',#444,1.6);
#444 = AXIS2_PLACEMENT_3D('',#445,#446,#447);
#445 = CARTESIAN_POINT('',(-5.656851476545,5.656857022438,0.));
#446 = DIRECTION('',(0.,0.,1.));
#447 = DIRECTION('',(1.,0.,0.));
#448 = PLANE('',#449);
#449 = AXIS2_PLACEMENT_3D('',#450,#451,#452);
#450 = CARTESIAN_POINT('',(5.945347213127E-07,-5.583141244665E-16,0.));
#451 = DIRECTION('',(0.,0.,1.));
#452 = DIRECTION('',(1.,0.,0.));
#453 = ADVANCED_FACE('',(#454),#464,.T.);
#454 = FACE_BOUND('',#455,.T.);
#455 = EDGE_LOOP('',(#456,#462,#463));
#456 = ORIENTED_EDGE('',*,*,#457,.F.);
#457 = EDGE_CURVE('',#32,#148,#458,.T.);
#458 = LINE('',#459,#460);
#459 = CARTESIAN_POINT('',(13.462912017836,-1.,4.));
#460 = VECTOR('',#461,1.);
#461 = DIRECTION('',(0.,1.,-2.22044604925E-16));
#462 = ORIENTED_EDGE('',*,*,#209,.T.);
#463 = ORIENTED_EDGE('',*,*,#147,.T.);
#464 = PLANE('',#465);
#465 = AXIS2_PLACEMENT_3D('',#466,#467,#468);
#466 = CARTESIAN_POINT('',(24.388362,-1.,4.));
#467 = DIRECTION('',(0.,2.22044604925E-16,1.));
#468 = DIRECTION('',(-1.,0.,0.));
#469 = ADVANCED_FACE('',(#470),#474,.F.);
#470 = FACE_BOUND('',#471,.F.);
#471 = EDGE_LOOP('',(#472,#473));
#472 = ORIENTED_EDGE('',*,*,#275,.F.);
#473 = ORIENTED_EDGE('',*,*,#201,.F.);
#474 = PLANE('',#475);
#475 = AXIS2_PLACEMENT_3D('',#476,#477,#478);
#476 = CARTESIAN_POINT('',(1.,-28.809478,4.));
#477 = DIRECTION('',(0.,0.,-1.));
#478 = DIRECTION('',(0.,1.,0.));
#479 = ADVANCED_FACE('',(#480,#506),#517,.T.);
#480 = FACE_BOUND('',#481,.T.);
#481 = EDGE_LOOP('',(#482,#490,#491,#499));
#482 = ORIENTED_EDGE('',*,*,#483,.F.);
#483 = EDGE_CURVE('',#184,#484,#486,.T.);
#484 = VERTEX_POINT('',#485);
#485 = CARTESIAN_POINT('',(-1.999999999999,-0.999999999999,4.));
#486 = LINE('',#487,#488);
#487 = CARTESIAN_POINT('',(-13.46291201783,-0.999999999991,4.));
#488 = VECTOR('',#489,1.);
#489 = DIRECTION('',(1.,-7.255206799836E-13,0.));
#490 = ORIENTED_EDGE('',*,*,#192,.T.);
#491 = ORIENTED_EDGE('',*,*,#492,.T.);
#492 = EDGE_CURVE('',#193,#493,#495,.T.);
#493 = VERTEX_POINT('',#494);
#494 = CARTESIAN_POINT('',(-1.,-1.999999999999,4.));
#495 = LINE('',#496,#497);
#496 = CARTESIAN_POINT('',(-0.999999999999,-13.46291201783,4.));
#497 = VECTOR('',#498,1.);
#498 = DIRECTION('',(-4.765895140112E-14,1.,0.));
#499 = ORIENTED_EDGE('',*,*,#500,.F.);
#500 = EDGE_CURVE('',#484,#493,#501,.T.);
#501 = CIRCLE('',#502,1.);
#502 = AXIS2_PLACEMENT_3D('',#503,#504,#505);
#503 = CARTESIAN_POINT('',(-2.,-1.999999999999,4.));
#504 = DIRECTION('',(-0.,-0.,-1.));
#505 = DIRECTION('',(0.,-1.,0.));
#506 = FACE_BOUND('',#507,.T.);
#507 = EDGE_LOOP('',(#508));
#508 = ORIENTED_EDGE('',*,*,#509,.F.);
#509 = EDGE_CURVE('',#510,#510,#512,.T.);
#510 = VERTEX_POINT('',#511);
#511 = CARTESIAN_POINT('',(-4.056851476545,-5.656857022438,4.));
#512 = CIRCLE('',#513,1.6);
#513 = AXIS2_PLACEMENT_3D('',#514,#515,#516);
#514 = CARTESIAN_POINT('',(-5.656851476545,-5.656857022438,4.));
#515 = DIRECTION('',(0.,0.,1.));
#516 = DIRECTION('',(1.,0.,0.));
#517 = PLANE('',#518);
#518 = AXIS2_PLACEMENT_3D('',#519,#520,#521);
#519 = CARTESIAN_POINT('',(5.945347213127E-07,-5.583141244665E-16,4.));
#520 = DIRECTION('',(0.,0.,1.));
#521 = DIRECTION('',(1.,0.,0.));
#522 = ADVANCED_FACE('',(#523),#532,.F.);
#523 = FACE_BOUND('',#524,.F.);
#524 = EDGE_LOOP('',(#525,#531));
#525 = ORIENTED_EDGE('',*,*,#526,.F.);
#526 = EDGE_CURVE('',#184,#175,#527,.T.);
#527 = LINE('',#528,#529);
#528 = CARTESIAN_POINT('',(-13.46291201783,-1.,4.));
#529 = VECTOR('',#530,1.);
#530 = DIRECTION('',(0.,1.,-2.22044604925E-16));
#531 = ORIENTED_EDGE('',*,*,#183,.F.);
#532 = PLANE('',#533);
#533 = AXIS2_PLACEMENT_3D('',#534,#535,#536);
#534 = CARTESIAN_POINT('',(-31.020915,-1.,4.));
#535 = DIRECTION('',(0.,-2.22044604925E-16,-1.));
#536 = DIRECTION('',(1.,0.,0.));
#537 = ADVANCED_FACE('',(#538,#564),#575,.T.);
#538 = FACE_BOUND('',#539,.T.);
#539 = EDGE_LOOP('',(#540,#548,#549,#557));
#540 = ORIENTED_EDGE('',*,*,#541,.F.);
#541 = EDGE_CURVE('',#166,#542,#544,.T.);
#542 = VERTEX_POINT('',#543);
#543 = CARTESIAN_POINT('',(-1.,1.999999999999,4.));
#544 = LINE('',#545,#546);
#545 = CARTESIAN_POINT('',(-1.,13.462912017836,4.));
#546 = VECTOR('',#547,1.);
#547 = DIRECTION('',(-1.068985825819E-16,-1.,0.));
#548 = ORIENTED_EDGE('',*,*,#174,.T.);
#549 = ORIENTED_EDGE('',*,*,#550,.T.);
#550 = EDGE_CURVE('',#175,#551,#553,.T.);
#551 = VERTEX_POINT('',#552);
#552 = CARTESIAN_POINT('',(-1.999999999999,0.999999999999,4.));
#553 = LINE('',#554,#555);
#554 = CARTESIAN_POINT('',(-13.46291201783,0.999999999991,4.));
#555 = VECTOR('',#556,1.);
#556 = DIRECTION('',(1.,7.257790182249E-13,0.));
#557 = ORIENTED_EDGE('',*,*,#558,.F.);
#558 = EDGE_CURVE('',#542,#551,#559,.T.);
#559 = CIRCLE('',#560,1.);
#560 = AXIS2_PLACEMENT_3D('',#561,#562,#563);
#561 = CARTESIAN_POINT('',(-2.,1.999999999999,4.));
#562 = DIRECTION('',(-0.,-0.,-1.));
#563 = DIRECTION('',(0.,-1.,0.));
#564 = FACE_BOUND('',#565,.T.);
#565 = EDGE_LOOP('',(#566));
#566 = ORIENTED_EDGE('',*,*,#567,.F.);
#567 = EDGE_CURVE('',#568,#568,#570,.T.);
#568 = VERTEX_POINT('',#569);
#569 = CARTESIAN_POINT('',(-4.056851476545,5.656857022438,4.));
#570 = CIRCLE('',#571,1.6);
#571 = AXIS2_PLACEMENT_3D('',#572,#573,#574);
#572 = CARTESIAN_POINT('',(-5.656851476545,5.656857022438,4.));
#573 = DIRECTION('',(0.,0.,1.));
#574 = DIRECTION('',(1.,0.,0.));
#575 = PLANE('',#576);
#576 = AXIS2_PLACEMENT_3D('',#577,#578,#579);
#577 = CARTESIAN_POINT('',(5.945347213127E-07,-5.583141244665E-16,4.));
#578 = DIRECTION('',(0.,0.,1.));
#579 = DIRECTION('',(1.,0.,0.));
#580 = ADVANCED_FACE('',(#581),#590,.F.);
#581 = FACE_BOUND('',#582,.F.);
#582 = EDGE_LOOP('',(#583,#584));
#583 = ORIENTED_EDGE('',*,*,#165,.F.);
#584 = ORIENTED_EDGE('',*,*,#585,.T.);
#585 = EDGE_CURVE('',#157,#166,#586,.T.);
#586 = LINE('',#587,#588);
#587 = CARTESIAN_POINT('',(1.,13.462912017836,4.));
#588 = VECTOR('',#589,1.);
#589 = DIRECTION('',(-1.,-0.,-0.));
#590 = PLANE('',#591);
#591 = AXIS2_PLACEMENT_3D('',#592,#593,#594);
#592 = CARTESIAN_POINT('',(1.,13.462912017836,4.));
#593 = DIRECTION('',(0.,0.,-1.));
#594 = DIRECTION('',(0.,1.,0.));
#595 = ADVANCED_FACE('',(#596,#622),#633,.T.);
#596 = FACE_BOUND('',#597,.T.);
#597 = EDGE_LOOP('',(#598,#606,#607,#615));
#598 = ORIENTED_EDGE('',*,*,#599,.T.);
#599 = EDGE_CURVE('',#600,#148,#602,.T.);
#600 = VERTEX_POINT('',#601);
#601 = CARTESIAN_POINT('',(2.,1.,4.));
#602 = LINE('',#603,#604);
#603 = CARTESIAN_POINT('',(1.,1.,4.));
#604 = VECTOR('',#605,1.);
#605 = DIRECTION('',(1.,-1.158067977971E-16,0.));
#606 = ORIENTED_EDGE('',*,*,#156,.T.);
#607 = ORIENTED_EDGE('',*,*,#608,.T.);
#608 = EDGE_CURVE('',#157,#609,#611,.T.);
#609 = VERTEX_POINT('',#610);
#610 = CARTESIAN_POINT('',(1.,2.,4.));
#611 = LINE('',#612,#613);
#612 = CARTESIAN_POINT('',(1.,13.462912017836,4.));
#613 = VECTOR('',#614,1.);
#614 = DIRECTION('',(-1.781643043032E-17,-1.,0.));
#615 = ORIENTED_EDGE('',*,*,#616,.F.);
#616 = EDGE_CURVE('',#600,#609,#617,.T.);
#617 = CIRCLE('',#618,1.);
#618 = AXIS2_PLACEMENT_3D('',#619,#620,#621);
#619 = CARTESIAN_POINT('',(2.,2.,4.));
#620 = DIRECTION('',(-0.,-0.,-1.));
#621 = DIRECTION('',(0.,-1.,0.));
#622 = FACE_BOUND('',#623,.T.);
#623 = EDGE_LOOP('',(#624));
#624 = ORIENTED_EDGE('',*,*,#625,.F.);
#625 = EDGE_CURVE('',#626,#626,#628,.T.);
#626 = VERTEX_POINT('',#627);
#627 = CARTESIAN_POINT('',(7.256855173808,5.656853325177,4.));
#628 = CIRCLE('',#629,1.6);
#629 = AXIS2_PLACEMENT_3D('',#630,#631,#632);
#630 = CARTESIAN_POINT('',(5.656855173808,5.656853325177,4.));
#631 = DIRECTION('',(0.,0.,1.));
#632 = DIRECTION('',(1.,0.,0.));
#633 = PLANE('',#634);
#634 = AXIS2_PLACEMENT_3D('',#635,#636,#637);
#635 = CARTESIAN_POINT('',(5.945347213127E-07,-5.583141244665E-16,4.));
#636 = DIRECTION('',(0.,0.,1.));
#637 = DIRECTION('',(1.,0.,0.));
#638 = ADVANCED_FACE('',(#639),#650,.T.);
#639 = FACE_BOUND('',#640,.T.);
#640 = EDGE_LOOP('',(#641,#642,#643,#649));
#641 = ORIENTED_EDGE('',*,*,#235,.F.);
#642 = ORIENTED_EDGE('',*,*,#457,.T.);
#643 = ORIENTED_EDGE('',*,*,#644,.F.);
#644 = EDGE_CURVE('',#382,#148,#645,.T.);
#645 = LINE('',#646,#647);
#646 = CARTESIAN_POINT('',(13.402947099752,1.,4.608336220952));
#647 = VECTOR('',#648,1.);
#648 = DIRECTION('',(9.809657753124E-02,-1.136025051875E-17,
    -0.99517689959));
#649 = ORIENTED_EDGE('',*,*,#381,.F.);
#650 = PLANE('',#651);
#651 = AXIS2_PLACEMENT_3D('',#652,#653,#654);
#652 = CARTESIAN_POINT('',(13.462912017836,-1.,4.));
#653 = DIRECTION('',(0.99517689959,2.178181580242E-17,9.809657753124E-02
    ));
#654 = DIRECTION('',(-9.809657753124E-02,2.209736614999E-16,
    0.99517689959));
#655 = ADVANCED_FACE('',(#656),#667,.T.);
#656 = FACE_BOUND('',#657,.T.);
#657 = EDGE_LOOP('',(#658,#659,#660,#661));
#658 = ORIENTED_EDGE('',*,*,#492,.F.);
#659 = ORIENTED_EDGE('',*,*,#281,.F.);
#660 = ORIENTED_EDGE('',*,*,#371,.T.);
#661 = ORIENTED_EDGE('',*,*,#662,.F.);
#662 = EDGE_CURVE('',#493,#363,#663,.T.);
#663 = LINE('',#664,#665);
#664 = CARTESIAN_POINT('',(-1.,-1.999999999999,4.));
#665 = VECTOR('',#666,1.);
#666 = DIRECTION('',(0.,0.,1.));
#667 = PLANE('',#668);
#668 = AXIS2_PLACEMENT_3D('',#669,#670,#671);
#669 = CARTESIAN_POINT('',(-0.999999999999,-13.46291201783,4.));
#670 = DIRECTION('',(-1.,-4.765895140112E-14,0.));
#671 = DIRECTION('',(-4.765895140112E-14,1.,0.));
#672 = ADVANCED_FACE('',(#673),#689,.T.);
#673 = FACE_BOUND('',#674,.T.);
#674 = EDGE_LOOP('',(#675,#676,#682,#683));
#675 = ORIENTED_EDGE('',*,*,#608,.F.);
#676 = ORIENTED_EDGE('',*,*,#677,.F.);
#677 = EDGE_CURVE('',#304,#157,#678,.T.);
#678 = LINE('',#679,#680);
#679 = CARTESIAN_POINT('',(1.,4.,100.));
#680 = VECTOR('',#681,1.);
#681 = DIRECTION('',(0.,9.809657753124E-02,-0.99517689959));
#682 = ORIENTED_EDGE('',*,*,#303,.T.);
#683 = ORIENTED_EDGE('',*,*,#684,.F.);
#684 = EDGE_CURVE('',#609,#306,#685,.T.);
#685 = LINE('',#686,#687);
#686 = CARTESIAN_POINT('',(1.,2.,4.));
#687 = VECTOR('',#688,1.);
#688 = DIRECTION('',(0.,0.,1.));
#689 = PLANE('',#690);
#690 = AXIS2_PLACEMENT_3D('',#691,#692,#693);
#691 = CARTESIAN_POINT('',(1.,13.462912017836,4.));
#692 = DIRECTION('',(1.,-1.781643043032E-17,0.));
#693 = DIRECTION('',(-1.781643043032E-17,-1.,0.));
#694 = ADVANCED_FACE('',(#695),#706,.F.);
#695 = FACE_BOUND('',#696,.T.);
#696 = EDGE_LOOP('',(#697,#698,#699,#700));
#697 = ORIENTED_EDGE('',*,*,#616,.T.);
#698 = ORIENTED_EDGE('',*,*,#684,.T.);
#699 = ORIENTED_EDGE('',*,*,#397,.F.);
#700 = ORIENTED_EDGE('',*,*,#701,.F.);
#701 = EDGE_CURVE('',#600,#390,#702,.T.);
#702 = LINE('',#703,#704);
#703 = CARTESIAN_POINT('',(2.,1.,4.));
#704 = VECTOR('',#705,1.);
#705 = DIRECTION('',(0.,0.,1.));
#706 = CYLINDRICAL_SURFACE('',#707,1.);
#707 = AXIS2_PLACEMENT_3D('',#708,#709,#710);
#708 = CARTESIAN_POINT('',(2.,2.,4.));
#709 = DIRECTION('',(0.,0.,1.));
#710 = DIRECTION('',(-1.158067977971E-16,-1.,0.));
#711 = ADVANCED_FACE('',(#712),#723,.F.);
#712 = FACE_BOUND('',#713,.F.);
#713 = EDGE_LOOP('',(#714,#715,#716,#722));
#714 = ORIENTED_EDGE('',*,*,#677,.F.);
#715 = ORIENTED_EDGE('',*,*,#313,.T.);
#716 = ORIENTED_EDGE('',*,*,#717,.T.);
#717 = EDGE_CURVE('',#314,#166,#718,.T.);
#718 = LINE('',#719,#720);
#719 = CARTESIAN_POINT('',(-1.,8.731456008918,52.));
#720 = VECTOR('',#721,1.);
#721 = DIRECTION('',(1.048638509423E-17,9.809657753124E-02,
    -0.99517689959));
#722 = ORIENTED_EDGE('',*,*,#585,.F.);
#723 = PLANE('',#724);
#724 = AXIS2_PLACEMENT_3D('',#725,#726,#727);
#725 = CARTESIAN_POINT('',(1.,4.,100.));
#726 = DIRECTION('',(0.,-0.99517689959,-9.809657753124E-02));
#727 = DIRECTION('',(0.,9.809657753124E-02,-0.99517689959));
#728 = ADVANCED_FACE('',(#729),#735,.T.);
#729 = FACE_BOUND('',#730,.T.);
#730 = EDGE_LOOP('',(#731,#732,#733,#734));
#731 = ORIENTED_EDGE('',*,*,#599,.F.);
#732 = ORIENTED_EDGE('',*,*,#701,.T.);
#733 = ORIENTED_EDGE('',*,*,#389,.T.);
#734 = ORIENTED_EDGE('',*,*,#644,.T.);
#735 = PLANE('',#736);
#736 = AXIS2_PLACEMENT_3D('',#737,#738,#739);
#737 = CARTESIAN_POINT('',(1.,1.,4.));
#738 = DIRECTION('',(1.158067977971E-16,1.,0.));
#739 = DIRECTION('',(1.,-1.158067977971E-16,0.));
#740 = ADVANCED_FACE('',(#741),#752,.F.);
#741 = FACE_BOUND('',#742,.F.);
#742 = EDGE_LOOP('',(#743,#744,#745,#746));
#743 = ORIENTED_EDGE('',*,*,#541,.F.);
#744 = ORIENTED_EDGE('',*,*,#717,.F.);
#745 = ORIENTED_EDGE('',*,*,#321,.T.);
#746 = ORIENTED_EDGE('',*,*,#747,.F.);
#747 = EDGE_CURVE('',#542,#322,#748,.T.);
#748 = LINE('',#749,#750);
#749 = CARTESIAN_POINT('',(-1.,1.999999999999,4.));
#750 = VECTOR('',#751,1.);
#751 = DIRECTION('',(0.,0.,1.));
#752 = PLANE('',#753);
#753 = AXIS2_PLACEMENT_3D('',#754,#755,#756);
#754 = CARTESIAN_POINT('',(-1.,13.462912017836,4.));
#755 = DIRECTION('',(1.,-1.068985825819E-16,0.));
#756 = DIRECTION('',(-1.068985825819E-16,-1.,0.));
#757 = ADVANCED_FACE('',(#758),#769,.F.);
#758 = FACE_BOUND('',#759,.T.);
#759 = EDGE_LOOP('',(#760,#761,#767,#768));
#760 = ORIENTED_EDGE('',*,*,#558,.T.);
#761 = ORIENTED_EDGE('',*,*,#762,.T.);
#762 = EDGE_CURVE('',#551,#330,#763,.T.);
#763 = LINE('',#764,#765);
#764 = CARTESIAN_POINT('',(-1.999999999999,0.999999999999,4.));
#765 = VECTOR('',#766,1.);
#766 = DIRECTION('',(0.,0.,1.));
#767 = ORIENTED_EDGE('',*,*,#329,.F.);
#768 = ORIENTED_EDGE('',*,*,#747,.F.);
#769 = CYLINDRICAL_SURFACE('',#770,1.);
#770 = AXIS2_PLACEMENT_3D('',#771,#772,#773);
#771 = CARTESIAN_POINT('',(-2.,1.999999999999,4.));
#772 = DIRECTION('',(0.,0.,1.));
#773 = DIRECTION('',(1.,-1.068985825819E-16,0.));
#774 = ADVANCED_FACE('',(#775),#786,.T.);
#775 = FACE_BOUND('',#776,.T.);
#776 = EDGE_LOOP('',(#777,#778,#784,#785));
#777 = ORIENTED_EDGE('',*,*,#550,.F.);
#778 = ORIENTED_EDGE('',*,*,#779,.F.);
#779 = EDGE_CURVE('',#339,#175,#780,.T.);
#780 = LINE('',#781,#782);
#781 = CARTESIAN_POINT('',(-13.46291201783,0.999999999991,4.));
#782 = VECTOR('',#783,1.);
#783 = DIRECTION('',(-9.809657753124E-02,-7.119643773185E-14,
    -0.99517689959));
#784 = ORIENTED_EDGE('',*,*,#338,.T.);
#785 = ORIENTED_EDGE('',*,*,#762,.F.);
#786 = PLANE('',#787);
#787 = AXIS2_PLACEMENT_3D('',#788,#789,#790);
#788 = CARTESIAN_POINT('',(-13.46291201783,0.999999999991,4.));
#789 = DIRECTION('',(-7.257790182249E-13,1.,0.));
#790 = DIRECTION('',(1.,7.257790182249E-13,0.));
#791 = ADVANCED_FACE('',(#792),#803,.F.);
#792 = FACE_BOUND('',#793,.F.);
#793 = EDGE_LOOP('',(#794,#800,#801,#802));
#794 = ORIENTED_EDGE('',*,*,#795,.F.);
#795 = EDGE_CURVE('',#184,#347,#796,.T.);
#796 = LINE('',#797,#798);
#797 = CARTESIAN_POINT('',(-13.46291201783,-1.,4.));
#798 = VECTOR('',#799,1.);
#799 = DIRECTION('',(9.809657753124E-02,2.209736614999E-16,0.99517689959
    ));
#800 = ORIENTED_EDGE('',*,*,#526,.T.);
#801 = ORIENTED_EDGE('',*,*,#779,.F.);
#802 = ORIENTED_EDGE('',*,*,#346,.F.);
#803 = PLANE('',#804);
#804 = AXIS2_PLACEMENT_3D('',#805,#806,#807);
#805 = CARTESIAN_POINT('',(-13.46291201783,-1.,4.));
#806 = DIRECTION('',(0.99517689959,-2.178181580242E-17,
    -9.809657753124E-02));
#807 = DIRECTION('',(9.809657753124E-02,2.209736614999E-16,0.99517689959
    ));
#808 = ADVANCED_FACE('',(#809),#820,.F.);
#809 = FACE_BOUND('',#810,.F.);
#810 = EDGE_LOOP('',(#811,#812,#813,#814));
#811 = ORIENTED_EDGE('',*,*,#483,.F.);
#812 = ORIENTED_EDGE('',*,*,#795,.T.);
#813 = ORIENTED_EDGE('',*,*,#354,.T.);
#814 = ORIENTED_EDGE('',*,*,#815,.F.);
#815 = EDGE_CURVE('',#484,#355,#816,.T.);
#816 = LINE('',#817,#818);
#817 = CARTESIAN_POINT('',(-1.999999999999,-0.999999999999,4.));
#818 = VECTOR('',#819,1.);
#819 = DIRECTION('',(0.,0.,1.));
#820 = PLANE('',#821);
#821 = AXIS2_PLACEMENT_3D('',#822,#823,#824);
#822 = CARTESIAN_POINT('',(-13.46291201783,-0.999999999991,4.));
#823 = DIRECTION('',(7.255206799836E-13,1.,0.));
#824 = DIRECTION('',(1.,-7.255206799836E-13,0.));
#825 = ADVANCED_FACE('',(#826),#832,.F.);
#826 = FACE_BOUND('',#827,.T.);
#827 = EDGE_LOOP('',(#828,#829,#830,#831));
#828 = ORIENTED_EDGE('',*,*,#500,.T.);
#829 = ORIENTED_EDGE('',*,*,#662,.T.);
#830 = ORIENTED_EDGE('',*,*,#362,.F.);
#831 = ORIENTED_EDGE('',*,*,#815,.F.);
#832 = CYLINDRICAL_SURFACE('',#833,1.);
#833 = AXIS2_PLACEMENT_3D('',#834,#835,#836);
#834 = CARTESIAN_POINT('',(-2.,-1.999999999999,4.));
#835 = DIRECTION('',(0.,0.,1.));
#836 = DIRECTION('',(7.255206799836E-13,1.,-0.));
#837 = ADVANCED_FACE('',(#838),#849,.F.);
#838 = FACE_BOUND('',#839,.T.);
#839 = EDGE_LOOP('',(#840,#846,#847,#848));
#840 = ORIENTED_EDGE('',*,*,#841,.T.);
#841 = EDGE_CURVE('',#416,#626,#842,.T.);
#842 = LINE('',#843,#844);
#843 = CARTESIAN_POINT('',(7.256855173808,5.656853325177,0.));
#844 = VECTOR('',#845,1.);
#845 = DIRECTION('',(0.,0.,1.));
#846 = ORIENTED_EDGE('',*,*,#625,.T.);
#847 = ORIENTED_EDGE('',*,*,#841,.F.);
#848 = ORIENTED_EDGE('',*,*,#415,.F.);
#849 = CYLINDRICAL_SURFACE('',#850,1.6);
#850 = AXIS2_PLACEMENT_3D('',#851,#852,#853);
#851 = CARTESIAN_POINT('',(5.656855173808,5.656853325177,0.));
#852 = DIRECTION('',(-0.,-0.,-1.));
#853 = DIRECTION('',(1.,0.,0.));
#854 = ADVANCED_FACE('',(#855),#866,.F.);
#855 = FACE_BOUND('',#856,.T.);
#856 = EDGE_LOOP('',(#857,#863,#864,#865));
#857 = ORIENTED_EDGE('',*,*,#858,.T.);
#858 = EDGE_CURVE('',#427,#510,#859,.T.);
#859 = LINE('',#860,#861);
#860 = CARTESIAN_POINT('',(-4.056851476545,-5.656857022438,0.));
#861 = VECTOR('',#862,1.);
#862 = DIRECTION('',(0.,0.,1.));
#863 = ORIENTED_EDGE('',*,*,#509,.T.);
#864 = ORIENTED_EDGE('',*,*,#858,.F.);
#865 = ORIENTED_EDGE('',*,*,#426,.F.);
#866 = CYLINDRICAL_SURFACE('',#867,1.6);
#867 = AXIS2_PLACEMENT_3D('',#868,#869,#870);
#868 = CARTESIAN_POINT('',(-5.656851476545,-5.656857022438,0.));
#869 = DIRECTION('',(-0.,-0.,-1.));
#870 = DIRECTION('',(1.,0.,0.));
#871 = ADVANCED_FACE('',(#872),#883,.F.);
#872 = FACE_BOUND('',#873,.T.);
#873 = EDGE_LOOP('',(#874,#880,#881,#882));
#874 = ORIENTED_EDGE('',*,*,#875,.T.);
#875 = EDGE_CURVE('',#441,#568,#876,.T.);
#876 = LINE('',#877,#878);
#877 = CARTESIAN_POINT('',(-4.056851476545,5.656857022438,0.));
#878 = VECTOR('',#879,1.);
#879 = DIRECTION('',(0.,0.,1.));
#880 = ORIENTED_EDGE('',*,*,#567,.T.);
#881 = ORIENTED_EDGE('',*,*,#875,.F.);
#882 = ORIENTED_EDGE('',*,*,#440,.F.);
#883 = CYLINDRICAL_SURFACE('',#884,1.6);
#884 = AXIS2_PLACEMENT_3D('',#885,#886,#887);
#885 = CARTESIAN_POINT('',(-5.656851476545,5.656857022438,0.));
#886 = DIRECTION('',(-0.,-0.,-1.));
#887 = DIRECTION('',(1.,0.,0.));
#888 = ( GEOMETRIC_REPRESENTATION_CONTEXT(3) 
GLOBAL_UNCERTAINTY_ASSIGNED_CONTEXT((#892)) GLOBAL_UNIT_ASSIGNED_CONTEXT
((#889,#890,#891)) REPRESENTATION_CONTEXT('Context #1',
  '3D Context with UNIT and UNCERTAINTY') );
#889 = ( LENGTH_UNIT() NAMED_UNIT(*) SI_UNIT(.MILLI.,.METRE.) );
#890 = ( NAMED_UNIT(*) PLANE_ANGLE_UNIT() SI_UNIT($,.RADIAN.) );
#891 = ( NAMED_UNIT(*) SI_UNIT($,.STERADIAN.) SOLID_ANGLE_UNIT() );
#892 = UNCERTAINTY_MEASURE_WITH_UNIT(LENGTH_MEASURE(2.E-06),#889,
  'distance_accuracy_value','confusion accuracy');
#893 = PRODUCT_RELATED_PRODUCT_CATEGORY('part',$,(#7));
#894 = MECHANICAL_DESIGN_GEOMETRIC_PRESENTATION_REPRESENTATION('',(#895)
  ,#888);
#895 = STYLED_ITEM('color',(#896),#15);
#896 = PRESENTATION_STYLE_ASSIGNMENT((#897,#903));
#897 = SURFACE_STYLE_USAGE(.BOTH.,#898);
#898 = SURFACE_SIDE_STYLE('',(#899));
#899 = SURFACE_STYLE_FILL_AREA(#900);
#900 = FILL_AREA_STYLE('',(#901));
#901 = FILL_AREA_STYLE_COLOUR('',#902);
#902 = COLOUR_RGB('',0.678431390124,0.709803936702,0.741176476869);
#903 = CURVE_STYLE('',#904,POSITIVE_LENGTH_MEASURE(0.1),#905);
#904 = DRAUGHTING_PRE_DEFINED_CURVE_FONT('continuous');
#905 = COLOUR_RGB('',9.803921802644E-02,9.803921802644E-02,
  9.803921802644E-02);
ENDSEC;
END-ISO-10303-21;
