ISO-10303-21;
HEADER;
FILE_DESCRIPTION(('FreeCAD Model'),'2;1');
FILE_NAME('Open CASCADE Shape Model','2026-08-01T17:35:41',(''),(''),
  'Open CASCADE STEP processor 7.8','FreeCAD','Unknown');
FILE_SCHEMA(('AUTOMOTIVE_DESIGN { 1 0 10303 214 1 1 1 1 }'));
ENDSEC;
DATA;
#1 = APPLICATION_PROTOCOL_DEFINITION('international standard',
  'automotive_design',2000,#2);
#2 = APPLICATION_CONTEXT(
  'core data for automotive mechanical design processes');
#3 = SHAPE_DEFINITION_REPRESENTATION(#4,#10);
#4 = PRODUCT_DEFINITION_SHAPE('','',#5);
#5 = PRODUCT_DEFINITION('design','',#6,#9);
#6 = PRODUCT_DEFINITION_FORMATION('','',#7);
#7 = PRODUCT('Hole','Hole','',(#8));
#8 = PRODUCT_CONTEXT('',#2,'mechanical');
#9 = PRODUCT_DEFINITION_CONTEXT('part definition',#2,'design');
#10 = ADVANCED_BREP_SHAPE_REPRESENTATION('',(#11,#15),#745);
#11 = AXIS2_PLACEMENT_3D('',#12,#13,#14);
#12 = CARTESIAN_POINT('',(0.,0.,0.));
#13 = DIRECTION('',(0.,0.,1.));
#14 = DIRECTION('',(1.,0.,-0.));
#15 = MANIFOLD_SOLID_BREP('',#16);
#16 = CLOSED_SHELL('',(#17,#89,#142,#166,#212,#308,#332,#356,#380,#469,
    #485,#510,#535,#560,#585,#607,#624,#641,#653,#675,#692,#709,#721,
    #733));
#17 = ADVANCED_FACE('',(#18),#84,.F.);
#18 = FACE_BOUND('',#19,.F.);
#19 = EDGE_LOOP('',(#20,#30,#38,#46,#54,#62,#70,#78));
#20 = ORIENTED_EDGE('',*,*,#21,.F.);
#21 = EDGE_CURVE('',#22,#24,#26,.T.);
#22 = VERTEX_POINT('',#23);
#23 = CARTESIAN_POINT('',(-45.,12.5,0.));
#24 = VERTEX_POINT('',#25);
#25 = CARTESIAN_POINT('',(-45.,-12.5,0.));
#26 = LINE('',#27,#28);
#27 = CARTESIAN_POINT('',(-45.,12.5,0.));
#28 = VECTOR('',#29,1.);
#29 = DIRECTION('',(0.,-1.,0.));
#30 = ORIENTED_EDGE('',*,*,#31,.T.);
#31 = EDGE_CURVE('',#22,#32,#34,.T.);
#32 = VERTEX_POINT('',#33);
#33 = CARTESIAN_POINT('',(-45.,12.5,45.));
#34 = LINE('',#35,#36);
#35 = CARTESIAN_POINT('',(-45.,12.5,0.));
#36 = VECTOR('',#37,1.);
#37 = DIRECTION('',(0.,0.,1.));
#38 = ORIENTED_EDGE('',*,*,#39,.T.);
#39 = EDGE_CURVE('',#32,#40,#42,.T.);
#40 = VERTEX_POINT('',#41);
#41 = CARTESIAN_POINT('',(-45.,-12.5,45.));
#42 = LINE('',#43,#44);
#43 = CARTESIAN_POINT('',(-45.,12.5,45.));
#44 = VECTOR('',#45,1.);
#45 = DIRECTION('',(0.,-1.,0.));
#46 = ORIENTED_EDGE('',*,*,#47,.F.);
#47 = EDGE_CURVE('',#48,#40,#50,.T.);
#48 = VERTEX_POINT('',#49);
#49 = CARTESIAN_POINT('',(-45.,-12.5,40.));
#50 = LINE('',#51,#52);
#51 = CARTESIAN_POINT('',(-45.,-12.5,0.));
#52 = VECTOR('',#53,1.);
#53 = DIRECTION('',(0.,0.,1.));
#54 = ORIENTED_EDGE('',*,*,#55,.T.);
#55 = EDGE_CURVE('',#48,#56,#58,.T.);
#56 = VERTEX_POINT('',#57);
#57 = CARTESIAN_POINT('',(-45.,7.5,40.));
#58 = LINE('',#59,#60);
#59 = CARTESIAN_POINT('',(-45.,-12.5,40.));
#60 = VECTOR('',#61,1.);
#61 = DIRECTION('',(0.,1.,-2.22044604925E-16));
#62 = ORIENTED_EDGE('',*,*,#63,.T.);
#63 = EDGE_CURVE('',#56,#64,#66,.T.);
#64 = VERTEX_POINT('',#65);
#65 = CARTESIAN_POINT('',(-45.,7.5,5.));
#66 = LINE('',#67,#68);
#67 = CARTESIAN_POINT('',(-45.,7.5,40.));
#68 = VECTOR('',#69,1.);
#69 = DIRECTION('',(0.,-2.22044604925E-16,-1.));
#70 = ORIENTED_EDGE('',*,*,#71,.F.);
#71 = EDGE_CURVE('',#72,#64,#74,.T.);
#72 = VERTEX_POINT('',#73);
#73 = CARTESIAN_POINT('',(-45.,-12.5,5.));
#74 = LINE('',#75,#76);
#75 = CARTESIAN_POINT('',(-45.,-12.5,5.));
#76 = VECTOR('',#77,1.);
#77 = DIRECTION('',(0.,1.,-2.22044604925E-16));
#78 = ORIENTED_EDGE('',*,*,#79,.F.);
#79 = EDGE_CURVE('',#24,#72,#80,.T.);
#80 = LINE('',#81,#82);
#81 = CARTESIAN_POINT('',(-45.,-12.5,0.));
#82 = VECTOR('',#83,1.);
#83 = DIRECTION('',(0.,0.,1.));
#84 = PLANE('',#85);
#85 = AXIS2_PLACEMENT_3D('',#86,#87,#88);
#86 = CARTESIAN_POINT('',(-45.,12.5,0.));
#87 = DIRECTION('',(1.,0.,0.));
#88 = DIRECTION('',(0.,-1.,0.));
#89 = ADVANCED_FACE('',(#90,#115,#126),#137,.F.);
#90 = FACE_BOUND('',#91,.F.);
#91 = EDGE_LOOP('',(#92,#93,#101,#109));
#92 = ORIENTED_EDGE('',*,*,#21,.T.);
#93 = ORIENTED_EDGE('',*,*,#94,.T.);
#94 = EDGE_CURVE('',#24,#95,#97,.T.);
#95 = VERTEX_POINT('',#96);
#96 = CARTESIAN_POINT('',(45.,-12.5,0.));
#97 = LINE('',#98,#99);
#98 = CARTESIAN_POINT('',(-45.,-12.5,0.));
#99 = VECTOR('',#100,1.);
#100 = DIRECTION('',(1.,0.,0.));
#101 = ORIENTED_EDGE('',*,*,#102,.T.);
#102 = EDGE_CURVE('',#95,#103,#105,.T.);
#103 = VERTEX_POINT('',#104);
#104 = CARTESIAN_POINT('',(45.,12.5,0.));
#105 = LINE('',#106,#107);
#106 = CARTESIAN_POINT('',(45.,-12.5,0.));
#107 = VECTOR('',#108,1.);
#108 = DIRECTION('',(0.,1.,0.));
#109 = ORIENTED_EDGE('',*,*,#110,.T.);
#110 = EDGE_CURVE('',#103,#22,#111,.T.);
#111 = LINE('',#112,#113);
#112 = CARTESIAN_POINT('',(45.,12.5,0.));
#113 = VECTOR('',#114,1.);
#114 = DIRECTION('',(-1.,0.,0.));
#115 = FACE_BOUND('',#116,.F.);
#116 = EDGE_LOOP('',(#117));
#117 = ORIENTED_EDGE('',*,*,#118,.T.);
#118 = EDGE_CURVE('',#119,#119,#121,.T.);
#119 = VERTEX_POINT('',#120);
#120 = CARTESIAN_POINT('',(-23.4,-1.5,0.));
#121 = CIRCLE('',#122,1.6);
#122 = AXIS2_PLACEMENT_3D('',#123,#124,#125);
#123 = CARTESIAN_POINT('',(-25.,-1.5,0.));
#124 = DIRECTION('',(0.,0.,-1.));
#125 = DIRECTION('',(1.,0.,0.));
#126 = FACE_BOUND('',#127,.F.);
#127 = EDGE_LOOP('',(#128));
#128 = ORIENTED_EDGE('',*,*,#129,.T.);
#129 = EDGE_CURVE('',#130,#130,#132,.T.);
#130 = VERTEX_POINT('',#131);
#131 = CARTESIAN_POINT('',(26.6,-1.5,0.));
#132 = CIRCLE('',#133,1.6);
#133 = AXIS2_PLACEMENT_3D('',#134,#135,#136);
#134 = CARTESIAN_POINT('',(25.,-1.5,0.));
#135 = DIRECTION('',(0.,0.,-1.));
#136 = DIRECTION('',(1.,0.,0.));
#137 = PLANE('',#138);
#138 = AXIS2_PLACEMENT_3D('',#139,#140,#141);
#139 = CARTESIAN_POINT('',(0.,0.,0.));
#140 = DIRECTION('',(0.,0.,1.));
#141 = DIRECTION('',(1.,0.,0.));
#142 = ADVANCED_FACE('',(#143),#161,.F.);
#143 = FACE_BOUND('',#144,.F.);
#144 = EDGE_LOOP('',(#145,#146,#147,#155));
#145 = ORIENTED_EDGE('',*,*,#94,.F.);
#146 = ORIENTED_EDGE('',*,*,#79,.T.);
#147 = ORIENTED_EDGE('',*,*,#148,.T.);
#148 = EDGE_CURVE('',#72,#149,#151,.T.);
#149 = VERTEX_POINT('',#150);
#150 = CARTESIAN_POINT('',(45.,-12.5,5.));
#151 = LINE('',#152,#153);
#152 = CARTESIAN_POINT('',(-45.,-12.5,5.));
#153 = VECTOR('',#154,1.);
#154 = DIRECTION('',(1.,0.,0.));
#155 = ORIENTED_EDGE('',*,*,#156,.F.);
#156 = EDGE_CURVE('',#95,#149,#157,.T.);
#157 = LINE('',#158,#159);
#158 = CARTESIAN_POINT('',(45.,-12.5,0.));
#159 = VECTOR('',#160,1.);
#160 = DIRECTION('',(0.,0.,1.));
#161 = PLANE('',#162);
#162 = AXIS2_PLACEMENT_3D('',#163,#164,#165);
#163 = CARTESIAN_POINT('',(-45.,-12.5,0.));
#164 = DIRECTION('',(0.,1.,0.));
#165 = DIRECTION('',(1.,0.,0.));
#166 = ADVANCED_FACE('',(#167,#185,#196),#207,.F.);
#167 = FACE_BOUND('',#168,.F.);
#168 = EDGE_LOOP('',(#169,#170,#178,#184));
#169 = ORIENTED_EDGE('',*,*,#71,.T.);
#170 = ORIENTED_EDGE('',*,*,#171,.T.);
#171 = EDGE_CURVE('',#64,#172,#174,.T.);
#172 = VERTEX_POINT('',#173);
#173 = CARTESIAN_POINT('',(45.,7.5,5.));
#174 = LINE('',#175,#176);
#175 = CARTESIAN_POINT('',(-45.,7.5,5.));
#176 = VECTOR('',#177,1.);
#177 = DIRECTION('',(1.,0.,0.));
#178 = ORIENTED_EDGE('',*,*,#179,.F.);
#179 = EDGE_CURVE('',#149,#172,#180,.T.);
#180 = LINE('',#181,#182);
#181 = CARTESIAN_POINT('',(45.,-12.5,5.));
#182 = VECTOR('',#183,1.);
#183 = DIRECTION('',(0.,1.,-2.22044604925E-16));
#184 = ORIENTED_EDGE('',*,*,#148,.F.);
#185 = FACE_BOUND('',#186,.F.);
#186 = EDGE_LOOP('',(#187));
#187 = ORIENTED_EDGE('',*,*,#188,.T.);
#188 = EDGE_CURVE('',#189,#189,#191,.T.);
#189 = VERTEX_POINT('',#190);
#190 = CARTESIAN_POINT('',(-22.,-1.5,5.));
#191 = CIRCLE('',#192,3.);
#192 = AXIS2_PLACEMENT_3D('',#193,#194,#195);
#193 = CARTESIAN_POINT('',(-25.,-1.5,5.));
#194 = DIRECTION('',(0.,0.,1.));
#195 = DIRECTION('',(1.,0.,-0.));
#196 = FACE_BOUND('',#197,.F.);
#197 = EDGE_LOOP('',(#198));
#198 = ORIENTED_EDGE('',*,*,#199,.T.);
#199 = EDGE_CURVE('',#200,#200,#202,.T.);
#200 = VERTEX_POINT('',#201);
#201 = CARTESIAN_POINT('',(28.,-1.5,5.));
#202 = CIRCLE('',#203,3.);
#203 = AXIS2_PLACEMENT_3D('',#204,#205,#206);
#204 = CARTESIAN_POINT('',(25.,-1.5,5.));
#205 = DIRECTION('',(0.,0.,1.));
#206 = DIRECTION('',(1.,0.,-0.));
#207 = PLANE('',#208);
#208 = AXIS2_PLACEMENT_3D('',#209,#210,#211);
#209 = CARTESIAN_POINT('',(-45.,-12.5,5.));
#210 = DIRECTION('',(0.,-2.22044604925E-16,-1.));
#211 = DIRECTION('',(1.,0.,0.));
#212 = ADVANCED_FACE('',(#213,#231,#267),#303,.F.);
#213 = FACE_BOUND('',#214,.F.);
#214 = EDGE_LOOP('',(#215,#216,#224,#230));
#215 = ORIENTED_EDGE('',*,*,#63,.F.);
#216 = ORIENTED_EDGE('',*,*,#217,.F.);
#217 = EDGE_CURVE('',#218,#56,#220,.T.);
#218 = VERTEX_POINT('',#219);
#219 = CARTESIAN_POINT('',(45.,7.5,40.));
#220 = LINE('',#221,#222);
#221 = CARTESIAN_POINT('',(45.,7.5,40.));
#222 = VECTOR('',#223,1.);
#223 = DIRECTION('',(-1.,0.,0.));
#224 = ORIENTED_EDGE('',*,*,#225,.F.);
#225 = EDGE_CURVE('',#172,#218,#226,.T.);
#226 = LINE('',#227,#228);
#227 = CARTESIAN_POINT('',(45.,7.5,5.));
#228 = VECTOR('',#229,1.);
#229 = DIRECTION('',(0.,2.22044604925E-16,1.));
#230 = ORIENTED_EDGE('',*,*,#171,.F.);
#231 = FACE_BOUND('',#232,.F.);
#232 = EDGE_LOOP('',(#233,#243,#252,#260));
#233 = ORIENTED_EDGE('',*,*,#234,.T.);
#234 = EDGE_CURVE('',#235,#237,#239,.T.);
#235 = VERTEX_POINT('',#236);
#236 = CARTESIAN_POINT('',(-20.9,7.5,10.));
#237 = VERTEX_POINT('',#238);
#238 = CARTESIAN_POINT('',(-20.9,7.5,35.));
#239 = LINE('',#240,#241);
#240 = CARTESIAN_POINT('',(-20.9,7.5,28.75));
#241 = VECTOR('',#242,1.);
#242 = DIRECTION('',(0.,0.,1.));
#243 = ORIENTED_EDGE('',*,*,#244,.T.);
#244 = EDGE_CURVE('',#237,#245,#247,.T.);
#245 = VERTEX_POINT('',#246);
#246 = CARTESIAN_POINT('',(-24.1,7.5,35.));
#247 = CIRCLE('',#248,1.6);
#248 = AXIS2_PLACEMENT_3D('',#249,#250,#251);
#249 = CARTESIAN_POINT('',(-22.5,7.5,35.));
#250 = DIRECTION('',(0.,-1.,2.22044604925E-16));
#251 = DIRECTION('',(1.,0.,0.));
#252 = ORIENTED_EDGE('',*,*,#253,.F.);
#253 = EDGE_CURVE('',#254,#245,#256,.T.);
#254 = VERTEX_POINT('',#255);
#255 = CARTESIAN_POINT('',(-24.1,7.5,10.));
#256 = LINE('',#257,#258);
#257 = CARTESIAN_POINT('',(-24.1,7.5,28.75));
#258 = VECTOR('',#259,1.);
#259 = DIRECTION('',(0.,0.,1.));
#260 = ORIENTED_EDGE('',*,*,#261,.T.);
#261 = EDGE_CURVE('',#254,#235,#262,.T.);
#262 = CIRCLE('',#263,1.6);
#263 = AXIS2_PLACEMENT_3D('',#264,#265,#266);
#264 = CARTESIAN_POINT('',(-22.5,7.5,10.));
#265 = DIRECTION('',(0.,-1.,2.22044604925E-16));
#266 = DIRECTION('',(1.,0.,0.));
#267 = FACE_BOUND('',#268,.F.);
#268 = EDGE_LOOP('',(#269,#279,#288,#296));
#269 = ORIENTED_EDGE('',*,*,#270,.T.);
#270 = EDGE_CURVE('',#271,#273,#275,.T.);
#271 = VERTEX_POINT('',#272);
#272 = CARTESIAN_POINT('',(24.1,7.5,10.));
#273 = VERTEX_POINT('',#274);
#274 = CARTESIAN_POINT('',(24.1,7.5,35.));
#275 = LINE('',#276,#277);
#276 = CARTESIAN_POINT('',(24.1,7.5,28.75));
#277 = VECTOR('',#278,1.);
#278 = DIRECTION('',(0.,0.,1.));
#279 = ORIENTED_EDGE('',*,*,#280,.T.);
#280 = EDGE_CURVE('',#273,#281,#283,.T.);
#281 = VERTEX_POINT('',#282);
#282 = CARTESIAN_POINT('',(20.9,7.5,35.));
#283 = CIRCLE('',#284,1.6);
#284 = AXIS2_PLACEMENT_3D('',#285,#286,#287);
#285 = CARTESIAN_POINT('',(22.5,7.5,35.));
#286 = DIRECTION('',(0.,-1.,2.22044604925E-16));
#287 = DIRECTION('',(1.,0.,0.));
#288 = ORIENTED_EDGE('',*,*,#289,.F.);
#289 = EDGE_CURVE('',#290,#281,#292,.T.);
#290 = VERTEX_POINT('',#291);
#291 = CARTESIAN_POINT('',(20.9,7.5,10.));
#292 = LINE('',#293,#294);
#293 = CARTESIAN_POINT('',(20.9,7.5,28.75));
#294 = VECTOR('',#295,1.);
#295 = DIRECTION('',(0.,0.,1.));
#296 = ORIENTED_EDGE('',*,*,#297,.T.);
#297 = EDGE_CURVE('',#290,#271,#298,.T.);
#298 = CIRCLE('',#299,1.6);
#299 = AXIS2_PLACEMENT_3D('',#300,#301,#302);
#300 = CARTESIAN_POINT('',(22.5,7.5,10.));
#301 = DIRECTION('',(0.,-1.,2.22044604925E-16));
#302 = DIRECTION('',(1.,0.,0.));
#303 = PLANE('',#304);
#304 = AXIS2_PLACEMENT_3D('',#305,#306,#307);
#305 = CARTESIAN_POINT('',(0.,7.5,22.5));
#306 = DIRECTION('',(0.,1.,0.));
#307 = DIRECTION('',(0.,0.,1.));
#308 = ADVANCED_FACE('',(#309),#327,.F.);
#309 = FACE_BOUND('',#310,.F.);
#310 = EDGE_LOOP('',(#311,#319,#320,#321));
#311 = ORIENTED_EDGE('',*,*,#312,.T.);
#312 = EDGE_CURVE('',#313,#218,#315,.T.);
#313 = VERTEX_POINT('',#314);
#314 = CARTESIAN_POINT('',(45.,-12.5,40.));
#315 = LINE('',#316,#317);
#316 = CARTESIAN_POINT('',(45.,-12.5,40.));
#317 = VECTOR('',#318,1.);
#318 = DIRECTION('',(0.,1.,-2.22044604925E-16));
#319 = ORIENTED_EDGE('',*,*,#217,.T.);
#320 = ORIENTED_EDGE('',*,*,#55,.F.);
#321 = ORIENTED_EDGE('',*,*,#322,.F.);
#322 = EDGE_CURVE('',#313,#48,#323,.T.);
#323 = LINE('',#324,#325);
#324 = CARTESIAN_POINT('',(45.,-12.5,40.));
#325 = VECTOR('',#326,1.);
#326 = DIRECTION('',(-1.,0.,0.));
#327 = PLANE('',#328);
#328 = AXIS2_PLACEMENT_3D('',#329,#330,#331);
#329 = CARTESIAN_POINT('',(45.,-12.5,40.));
#330 = DIRECTION('',(0.,2.22044604925E-16,1.));
#331 = DIRECTION('',(-1.,0.,0.));
#332 = ADVANCED_FACE('',(#333),#351,.F.);
#333 = FACE_BOUND('',#334,.F.);
#334 = EDGE_LOOP('',(#335,#336,#337,#345));
#335 = ORIENTED_EDGE('',*,*,#322,.T.);
#336 = ORIENTED_EDGE('',*,*,#47,.T.);
#337 = ORIENTED_EDGE('',*,*,#338,.T.);
#338 = EDGE_CURVE('',#40,#339,#341,.T.);
#339 = VERTEX_POINT('',#340);
#340 = CARTESIAN_POINT('',(45.,-12.5,45.));
#341 = LINE('',#342,#343);
#342 = CARTESIAN_POINT('',(-45.,-12.5,45.));
#343 = VECTOR('',#344,1.);
#344 = DIRECTION('',(1.,0.,0.));
#345 = ORIENTED_EDGE('',*,*,#346,.F.);
#346 = EDGE_CURVE('',#313,#339,#347,.T.);
#347 = LINE('',#348,#349);
#348 = CARTESIAN_POINT('',(45.,-12.5,0.));
#349 = VECTOR('',#350,1.);
#350 = DIRECTION('',(0.,0.,1.));
#351 = PLANE('',#352);
#352 = AXIS2_PLACEMENT_3D('',#353,#354,#355);
#353 = CARTESIAN_POINT('',(-45.,-12.5,0.));
#354 = DIRECTION('',(0.,1.,0.));
#355 = DIRECTION('',(1.,0.,0.));
#356 = ADVANCED_FACE('',(#357),#375,.T.);
#357 = FACE_BOUND('',#358,.T.);
#358 = EDGE_LOOP('',(#359,#360,#361,#369));
#359 = ORIENTED_EDGE('',*,*,#39,.T.);
#360 = ORIENTED_EDGE('',*,*,#338,.T.);
#361 = ORIENTED_EDGE('',*,*,#362,.T.);
#362 = EDGE_CURVE('',#339,#363,#365,.T.);
#363 = VERTEX_POINT('',#364);
#364 = CARTESIAN_POINT('',(45.,12.5,45.));
#365 = LINE('',#366,#367);
#366 = CARTESIAN_POINT('',(45.,-12.5,45.));
#367 = VECTOR('',#368,1.);
#368 = DIRECTION('',(0.,1.,0.));
#369 = ORIENTED_EDGE('',*,*,#370,.T.);
#370 = EDGE_CURVE('',#363,#32,#371,.T.);
#371 = LINE('',#372,#373);
#372 = CARTESIAN_POINT('',(45.,12.5,45.));
#373 = VECTOR('',#374,1.);
#374 = DIRECTION('',(-1.,0.,0.));
#375 = PLANE('',#376);
#376 = AXIS2_PLACEMENT_3D('',#377,#378,#379);
#377 = CARTESIAN_POINT('',(0.,0.,45.));
#378 = DIRECTION('',(0.,0.,1.));
#379 = DIRECTION('',(1.,0.,0.));
#380 = ADVANCED_FACE('',(#381,#392,#428),#464,.F.);
#381 = FACE_BOUND('',#382,.F.);
#382 = EDGE_LOOP('',(#383,#389,#390,#391));
#383 = ORIENTED_EDGE('',*,*,#384,.T.);
#384 = EDGE_CURVE('',#103,#363,#385,.T.);
#385 = LINE('',#386,#387);
#386 = CARTESIAN_POINT('',(45.,12.5,0.));
#387 = VECTOR('',#388,1.);
#388 = DIRECTION('',(0.,0.,1.));
#389 = ORIENTED_EDGE('',*,*,#370,.T.);
#390 = ORIENTED_EDGE('',*,*,#31,.F.);
#391 = ORIENTED_EDGE('',*,*,#110,.F.);
#392 = FACE_BOUND('',#393,.F.);
#393 = EDGE_LOOP('',(#394,#405,#413,#422));
#394 = ORIENTED_EDGE('',*,*,#395,.F.);
#395 = EDGE_CURVE('',#396,#398,#400,.T.);
#396 = VERTEX_POINT('',#397);
#397 = CARTESIAN_POINT('',(24.1,12.5,35.));
#398 = VERTEX_POINT('',#399);
#399 = CARTESIAN_POINT('',(20.9,12.5,35.));
#400 = CIRCLE('',#401,1.6);
#401 = AXIS2_PLACEMENT_3D('',#402,#403,#404);
#402 = CARTESIAN_POINT('',(22.5,12.5,35.));
#403 = DIRECTION('',(0.,-1.,2.22044604925E-16));
#404 = DIRECTION('',(1.,0.,0.));
#405 = ORIENTED_EDGE('',*,*,#406,.T.);
#406 = EDGE_CURVE('',#396,#407,#409,.T.);
#407 = VERTEX_POINT('',#408);
#408 = CARTESIAN_POINT('',(24.1,12.5,10.));
#409 = LINE('',#410,#411);
#410 = CARTESIAN_POINT('',(24.1,12.5,17.5));
#411 = VECTOR('',#412,1.);
#412 = DIRECTION('',(0.,0.,-1.));
#413 = ORIENTED_EDGE('',*,*,#414,.F.);
#414 = EDGE_CURVE('',#415,#407,#417,.T.);
#415 = VERTEX_POINT('',#416);
#416 = CARTESIAN_POINT('',(20.9,12.5,10.));
#417 = CIRCLE('',#418,1.6);
#418 = AXIS2_PLACEMENT_3D('',#419,#420,#421);
#419 = CARTESIAN_POINT('',(22.5,12.5,10.));
#420 = DIRECTION('',(0.,-1.,2.22044604925E-16));
#421 = DIRECTION('',(1.,0.,0.));
#422 = ORIENTED_EDGE('',*,*,#423,.F.);
#423 = EDGE_CURVE('',#398,#415,#424,.T.);
#424 = LINE('',#425,#426);
#425 = CARTESIAN_POINT('',(20.9,12.5,17.5));
#426 = VECTOR('',#427,1.);
#427 = DIRECTION('',(0.,0.,-1.));
#428 = FACE_BOUND('',#429,.F.);
#429 = EDGE_LOOP('',(#430,#441,#449,#458));
#430 = ORIENTED_EDGE('',*,*,#431,.F.);
#431 = EDGE_CURVE('',#432,#434,#436,.T.);
#432 = VERTEX_POINT('',#433);
#433 = CARTESIAN_POINT('',(-20.9,12.5,35.));
#434 = VERTEX_POINT('',#435);
#435 = CARTESIAN_POINT('',(-24.1,12.5,35.));
#436 = CIRCLE('',#437,1.6);
#437 = AXIS2_PLACEMENT_3D('',#438,#439,#440);
#438 = CARTESIAN_POINT('',(-22.5,12.5,35.));
#439 = DIRECTION('',(0.,-1.,2.22044604925E-16));
#440 = DIRECTION('',(1.,0.,0.));
#441 = ORIENTED_EDGE('',*,*,#442,.T.);
#442 = EDGE_CURVE('',#432,#443,#445,.T.);
#443 = VERTEX_POINT('',#444);
#444 = CARTESIAN_POINT('',(-20.9,12.5,10.));
#445 = LINE('',#446,#447);
#446 = CARTESIAN_POINT('',(-20.9,12.5,17.5));
#447 = VECTOR('',#448,1.);
#448 = DIRECTION('',(0.,0.,-1.));
#449 = ORIENTED_EDGE('',*,*,#450,.F.);
#450 = EDGE_CURVE('',#451,#443,#453,.T.);
#451 = VERTEX_POINT('',#452);
#452 = CARTESIAN_POINT('',(-24.1,12.5,10.));
#453 = CIRCLE('',#454,1.6);
#454 = AXIS2_PLACEMENT_3D('',#455,#456,#457);
#455 = CARTESIAN_POINT('',(-22.5,12.5,10.));
#456 = DIRECTION('',(0.,-1.,2.22044604925E-16));
#457 = DIRECTION('',(1.,0.,0.));
#458 = ORIENTED_EDGE('',*,*,#459,.F.);
#459 = EDGE_CURVE('',#434,#451,#460,.T.);
#460 = LINE('',#461,#462);
#461 = CARTESIAN_POINT('',(-24.1,12.5,17.5));
#462 = VECTOR('',#463,1.);
#463 = DIRECTION('',(0.,0.,-1.));
#464 = PLANE('',#465);
#465 = AXIS2_PLACEMENT_3D('',#466,#467,#468);
#466 = CARTESIAN_POINT('',(45.,12.5,0.));
#467 = DIRECTION('',(0.,-1.,0.));
#468 = DIRECTION('',(-1.,0.,0.));
#469 = ADVANCED_FACE('',(#470),#480,.F.);
#470 = FACE_BOUND('',#471,.F.);
#471 = EDGE_LOOP('',(#472,#473,#474,#475,#476,#477,#478,#479));
#472 = ORIENTED_EDGE('',*,*,#102,.F.);
#473 = ORIENTED_EDGE('',*,*,#156,.T.);
#474 = ORIENTED_EDGE('',*,*,#179,.T.);
#475 = ORIENTED_EDGE('',*,*,#225,.T.);
#476 = ORIENTED_EDGE('',*,*,#312,.F.);
#477 = ORIENTED_EDGE('',*,*,#346,.T.);
#478 = ORIENTED_EDGE('',*,*,#362,.T.);
#479 = ORIENTED_EDGE('',*,*,#384,.F.);
#480 = PLANE('',#481);
#481 = AXIS2_PLACEMENT_3D('',#482,#483,#484);
#482 = CARTESIAN_POINT('',(45.,-12.5,0.));
#483 = DIRECTION('',(-1.,0.,0.));
#484 = DIRECTION('',(0.,1.,0.));
#485 = ADVANCED_FACE('',(#486),#505,.F.);
#486 = FACE_BOUND('',#487,.T.);
#487 = EDGE_LOOP('',(#488,#496,#503,#504));
#488 = ORIENTED_EDGE('',*,*,#489,.F.);
#489 = EDGE_CURVE('',#490,#119,#492,.T.);
#490 = VERTEX_POINT('',#491);
#491 = CARTESIAN_POINT('',(-23.4,-1.5,3.));
#492 = LINE('',#493,#494);
#493 = CARTESIAN_POINT('',(-23.4,-1.5,3.));
#494 = VECTOR('',#495,1.);
#495 = DIRECTION('',(-5.792467954566E-17,0.,-1.));
#496 = ORIENTED_EDGE('',*,*,#497,.T.);
#497 = EDGE_CURVE('',#490,#490,#498,.T.);
#498 = CIRCLE('',#499,1.6);
#499 = AXIS2_PLACEMENT_3D('',#500,#501,#502);
#500 = CARTESIAN_POINT('',(-25.,-1.5,3.));
#501 = DIRECTION('',(0.,0.,1.));
#502 = DIRECTION('',(1.,0.,-0.));
#503 = ORIENTED_EDGE('',*,*,#489,.T.);
#504 = ORIENTED_EDGE('',*,*,#118,.T.);
#505 = CYLINDRICAL_SURFACE('',#506,1.6);
#506 = AXIS2_PLACEMENT_3D('',#507,#508,#509);
#507 = CARTESIAN_POINT('',(-25.,-1.5,3.));
#508 = DIRECTION('',(-0.,-0.,-1.));
#509 = DIRECTION('',(1.,0.,0.));
#510 = ADVANCED_FACE('',(#511),#530,.F.);
#511 = FACE_BOUND('',#512,.T.);
#512 = EDGE_LOOP('',(#513,#521,#528,#529));
#513 = ORIENTED_EDGE('',*,*,#514,.F.);
#514 = EDGE_CURVE('',#515,#130,#517,.T.);
#515 = VERTEX_POINT('',#516);
#516 = CARTESIAN_POINT('',(26.6,-1.5,3.));
#517 = LINE('',#518,#519);
#518 = CARTESIAN_POINT('',(26.6,-1.5,3.));
#519 = VECTOR('',#520,1.);
#520 = DIRECTION('',(-5.792467954566E-17,0.,-1.));
#521 = ORIENTED_EDGE('',*,*,#522,.T.);
#522 = EDGE_CURVE('',#515,#515,#523,.T.);
#523 = CIRCLE('',#524,1.6);
#524 = AXIS2_PLACEMENT_3D('',#525,#526,#527);
#525 = CARTESIAN_POINT('',(25.,-1.5,3.));
#526 = DIRECTION('',(0.,0.,1.));
#527 = DIRECTION('',(1.,0.,-0.));
#528 = ORIENTED_EDGE('',*,*,#514,.T.);
#529 = ORIENTED_EDGE('',*,*,#129,.T.);
#530 = CYLINDRICAL_SURFACE('',#531,1.6);
#531 = AXIS2_PLACEMENT_3D('',#532,#533,#534);
#532 = CARTESIAN_POINT('',(25.,-1.5,3.));
#533 = DIRECTION('',(-0.,-0.,-1.));
#534 = DIRECTION('',(1.,0.,0.));
#535 = ADVANCED_FACE('',(#536),#555,.F.);
#536 = FACE_BOUND('',#537,.T.);
#537 = EDGE_LOOP('',(#538,#546,#547,#548));
#538 = ORIENTED_EDGE('',*,*,#539,.F.);
#539 = EDGE_CURVE('',#189,#540,#542,.T.);
#540 = VERTEX_POINT('',#541);
#541 = CARTESIAN_POINT('',(-22.,-1.5,3.));
#542 = LINE('',#543,#544);
#543 = CARTESIAN_POINT('',(-22.,-1.5,5.));
#544 = VECTOR('',#545,1.);
#545 = DIRECTION('',(0.,0.,-1.));
#546 = ORIENTED_EDGE('',*,*,#188,.T.);
#547 = ORIENTED_EDGE('',*,*,#539,.T.);
#548 = ORIENTED_EDGE('',*,*,#549,.F.);
#549 = EDGE_CURVE('',#540,#540,#550,.T.);
#550 = CIRCLE('',#551,3.);
#551 = AXIS2_PLACEMENT_3D('',#552,#553,#554);
#552 = CARTESIAN_POINT('',(-25.,-1.5,3.));
#553 = DIRECTION('',(0.,0.,1.));
#554 = DIRECTION('',(1.,0.,-0.));
#555 = CYLINDRICAL_SURFACE('',#556,3.);
#556 = AXIS2_PLACEMENT_3D('',#557,#558,#559);
#557 = CARTESIAN_POINT('',(-25.,-1.5,5.));
#558 = DIRECTION('',(-0.,-0.,-1.));
#559 = DIRECTION('',(1.,0.,0.));
#560 = ADVANCED_FACE('',(#561),#580,.F.);
#561 = FACE_BOUND('',#562,.T.);
#562 = EDGE_LOOP('',(#563,#571,#572,#573));
#563 = ORIENTED_EDGE('',*,*,#564,.F.);
#564 = EDGE_CURVE('',#200,#565,#567,.T.);
#565 = VERTEX_POINT('',#566);
#566 = CARTESIAN_POINT('',(28.,-1.5,3.));
#567 = LINE('',#568,#569);
#568 = CARTESIAN_POINT('',(28.,-1.5,5.));
#569 = VECTOR('',#570,1.);
#570 = DIRECTION('',(0.,0.,-1.));
#571 = ORIENTED_EDGE('',*,*,#199,.T.);
#572 = ORIENTED_EDGE('',*,*,#564,.T.);
#573 = ORIENTED_EDGE('',*,*,#574,.F.);
#574 = EDGE_CURVE('',#565,#565,#575,.T.);
#575 = CIRCLE('',#576,3.);
#576 = AXIS2_PLACEMENT_3D('',#577,#578,#579);
#577 = CARTESIAN_POINT('',(25.,-1.5,3.));
#578 = DIRECTION('',(0.,0.,1.));
#579 = DIRECTION('',(1.,0.,-0.));
#580 = CYLINDRICAL_SURFACE('',#581,3.);
#581 = AXIS2_PLACEMENT_3D('',#582,#583,#584);
#582 = CARTESIAN_POINT('',(25.,-1.5,5.));
#583 = DIRECTION('',(-0.,-0.,-1.));
#584 = DIRECTION('',(1.,0.,0.));
#585 = ADVANCED_FACE('',(#586),#602,.T.);
#586 = FACE_BOUND('',#587,.T.);
#587 = EDGE_LOOP('',(#588,#589,#595,#596));
#588 = ORIENTED_EDGE('',*,*,#234,.T.);
#589 = ORIENTED_EDGE('',*,*,#590,.T.);
#590 = EDGE_CURVE('',#237,#432,#591,.T.);
#591 = LINE('',#592,#593);
#592 = CARTESIAN_POINT('',(-20.9,-12.5,35.));
#593 = VECTOR('',#594,1.);
#594 = DIRECTION('',(0.,1.,-2.22044604925E-16));
#595 = ORIENTED_EDGE('',*,*,#442,.T.);
#596 = ORIENTED_EDGE('',*,*,#597,.F.);
#597 = EDGE_CURVE('',#235,#443,#598,.T.);
#598 = LINE('',#599,#600);
#599 = CARTESIAN_POINT('',(-20.9,-12.5,10.));
#600 = VECTOR('',#601,1.);
#601 = DIRECTION('',(0.,1.,-2.22044604925E-16));
#602 = PLANE('',#603);
#603 = AXIS2_PLACEMENT_3D('',#604,#605,#606);
#604 = CARTESIAN_POINT('',(-20.9,-12.5,35.));
#605 = DIRECTION('',(-1.,0.,0.));
#606 = DIRECTION('',(0.,-2.22044604925E-16,-1.));
#607 = ADVANCED_FACE('',(#608),#619,.F.);
#608 = FACE_BOUND('',#609,.F.);
#609 = EDGE_LOOP('',(#610,#611,#617,#618));
#610 = ORIENTED_EDGE('',*,*,#261,.F.);
#611 = ORIENTED_EDGE('',*,*,#612,.T.);
#612 = EDGE_CURVE('',#254,#451,#613,.T.);
#613 = LINE('',#614,#615);
#614 = CARTESIAN_POINT('',(-24.1,-12.5,10.));
#615 = VECTOR('',#616,1.);
#616 = DIRECTION('',(0.,1.,-2.22044604925E-16));
#617 = ORIENTED_EDGE('',*,*,#450,.T.);
#618 = ORIENTED_EDGE('',*,*,#597,.F.);
#619 = CYLINDRICAL_SURFACE('',#620,1.6);
#620 = AXIS2_PLACEMENT_3D('',#621,#622,#623);
#621 = CARTESIAN_POINT('',(-22.5,-12.5,10.));
#622 = DIRECTION('',(0.,-1.,2.22044604925E-16));
#623 = DIRECTION('',(1.,0.,0.));
#624 = ADVANCED_FACE('',(#625),#636,.F.);
#625 = FACE_BOUND('',#626,.F.);
#626 = EDGE_LOOP('',(#627,#628,#634,#635));
#627 = ORIENTED_EDGE('',*,*,#253,.T.);
#628 = ORIENTED_EDGE('',*,*,#629,.T.);
#629 = EDGE_CURVE('',#245,#434,#630,.T.);
#630 = LINE('',#631,#632);
#631 = CARTESIAN_POINT('',(-24.1,-12.5,35.));
#632 = VECTOR('',#633,1.);
#633 = DIRECTION('',(0.,1.,-2.22044604925E-16));
#634 = ORIENTED_EDGE('',*,*,#459,.T.);
#635 = ORIENTED_EDGE('',*,*,#612,.F.);
#636 = PLANE('',#637);
#637 = AXIS2_PLACEMENT_3D('',#638,#639,#640);
#638 = CARTESIAN_POINT('',(-24.1,-12.5,35.));
#639 = DIRECTION('',(-1.,0.,0.));
#640 = DIRECTION('',(0.,-2.22044604925E-16,-1.));
#641 = ADVANCED_FACE('',(#642),#648,.F.);
#642 = FACE_BOUND('',#643,.F.);
#643 = EDGE_LOOP('',(#644,#645,#646,#647));
#644 = ORIENTED_EDGE('',*,*,#244,.F.);
#645 = ORIENTED_EDGE('',*,*,#590,.T.);
#646 = ORIENTED_EDGE('',*,*,#431,.T.);
#647 = ORIENTED_EDGE('',*,*,#629,.F.);
#648 = CYLINDRICAL_SURFACE('',#649,1.6);
#649 = AXIS2_PLACEMENT_3D('',#650,#651,#652);
#650 = CARTESIAN_POINT('',(-22.5,-12.5,35.));
#651 = DIRECTION('',(0.,-1.,2.22044604925E-16));
#652 = DIRECTION('',(1.,0.,0.));
#653 = ADVANCED_FACE('',(#654),#670,.T.);
#654 = FACE_BOUND('',#655,.T.);
#655 = EDGE_LOOP('',(#656,#657,#663,#664));
#656 = ORIENTED_EDGE('',*,*,#270,.T.);
#657 = ORIENTED_EDGE('',*,*,#658,.T.);
#658 = EDGE_CURVE('',#273,#396,#659,.T.);
#659 = LINE('',#660,#661);
#660 = CARTESIAN_POINT('',(24.1,-12.5,35.));
#661 = VECTOR('',#662,1.);
#662 = DIRECTION('',(0.,1.,-2.22044604925E-16));
#663 = ORIENTED_EDGE('',*,*,#406,.T.);
#664 = ORIENTED_EDGE('',*,*,#665,.F.);
#665 = EDGE_CURVE('',#271,#407,#666,.T.);
#666 = LINE('',#667,#668);
#667 = CARTESIAN_POINT('',(24.1,-12.5,10.));
#668 = VECTOR('',#669,1.);
#669 = DIRECTION('',(0.,1.,-2.22044604925E-16));
#670 = PLANE('',#671);
#671 = AXIS2_PLACEMENT_3D('',#672,#673,#674);
#672 = CARTESIAN_POINT('',(24.1,-12.5,35.));
#673 = DIRECTION('',(-1.,0.,0.));
#674 = DIRECTION('',(0.,-2.22044604925E-16,-1.));
#675 = ADVANCED_FACE('',(#676),#687,.F.);
#676 = FACE_BOUND('',#677,.F.);
#677 = EDGE_LOOP('',(#678,#679,#685,#686));
#678 = ORIENTED_EDGE('',*,*,#297,.F.);
#679 = ORIENTED_EDGE('',*,*,#680,.T.);
#680 = EDGE_CURVE('',#290,#415,#681,.T.);
#681 = LINE('',#682,#683);
#682 = CARTESIAN_POINT('',(20.9,-12.5,10.));
#683 = VECTOR('',#684,1.);
#684 = DIRECTION('',(0.,1.,-2.22044604925E-16));
#685 = ORIENTED_EDGE('',*,*,#414,.T.);
#686 = ORIENTED_EDGE('',*,*,#665,.F.);
#687 = CYLINDRICAL_SURFACE('',#688,1.6);
#688 = AXIS2_PLACEMENT_3D('',#689,#690,#691);
#689 = CARTESIAN_POINT('',(22.5,-12.5,10.));
#690 = DIRECTION('',(0.,-1.,2.22044604925E-16));
#691 = DIRECTION('',(1.,0.,0.));
#692 = ADVANCED_FACE('',(#693),#704,.F.);
#693 = FACE_BOUND('',#694,.F.);
#694 = EDGE_LOOP('',(#695,#696,#702,#703));
#695 = ORIENTED_EDGE('',*,*,#289,.T.);
#696 = ORIENTED_EDGE('',*,*,#697,.T.);
#697 = EDGE_CURVE('',#281,#398,#698,.T.);
#698 = LINE('',#699,#700);
#699 = CARTESIAN_POINT('',(20.9,-12.5,35.));
#700 = VECTOR('',#701,1.);
#701 = DIRECTION('',(0.,1.,-2.22044604925E-16));
#702 = ORIENTED_EDGE('',*,*,#423,.T.);
#703 = ORIENTED_EDGE('',*,*,#680,.F.);
#704 = PLANE('',#705);
#705 = AXIS2_PLACEMENT_3D('',#706,#707,#708);
#706 = CARTESIAN_POINT('',(20.9,-12.5,35.));
#707 = DIRECTION('',(-1.,0.,0.));
#708 = DIRECTION('',(0.,-2.22044604925E-16,-1.));
#709 = ADVANCED_FACE('',(#710),#716,.F.);
#710 = FACE_BOUND('',#711,.F.);
#711 = EDGE_LOOP('',(#712,#713,#714,#715));
#712 = ORIENTED_EDGE('',*,*,#280,.F.);
#713 = ORIENTED_EDGE('',*,*,#658,.T.);
#714 = ORIENTED_EDGE('',*,*,#395,.T.);
#715 = ORIENTED_EDGE('',*,*,#697,.F.);
#716 = CYLINDRICAL_SURFACE('',#717,1.6);
#717 = AXIS2_PLACEMENT_3D('',#718,#719,#720);
#718 = CARTESIAN_POINT('',(22.5,-12.5,35.));
#719 = DIRECTION('',(0.,-1.,2.22044604925E-16));
#720 = DIRECTION('',(1.,0.,0.));
#721 = ADVANCED_FACE('',(#722,#725),#728,.T.);
#722 = FACE_BOUND('',#723,.T.);
#723 = EDGE_LOOP('',(#724));
#724 = ORIENTED_EDGE('',*,*,#549,.T.);
#725 = FACE_BOUND('',#726,.T.);
#726 = EDGE_LOOP('',(#727));
#727 = ORIENTED_EDGE('',*,*,#497,.F.);
#728 = PLANE('',#729);
#729 = AXIS2_PLACEMENT_3D('',#730,#731,#732);
#730 = CARTESIAN_POINT('',(-25.,-1.5,3.));
#731 = DIRECTION('',(0.,0.,1.));
#732 = DIRECTION('',(1.,0.,-0.));
#733 = ADVANCED_FACE('',(#734,#737),#740,.T.);
#734 = FACE_BOUND('',#735,.T.);
#735 = EDGE_LOOP('',(#736));
#736 = ORIENTED_EDGE('',*,*,#574,.T.);
#737 = FACE_BOUND('',#738,.T.);
#738 = EDGE_LOOP('',(#739));
#739 = ORIENTED_EDGE('',*,*,#522,.F.);
#740 = PLANE('',#741);
#741 = AXIS2_PLACEMENT_3D('',#742,#743,#744);
#742 = CARTESIAN_POINT('',(25.,-1.5,3.));
#743 = DIRECTION('',(0.,0.,1.));
#744 = DIRECTION('',(1.,0.,-0.));
#745 = ( GEOMETRIC_REPRESENTATION_CONTEXT(3) 
GLOBAL_UNCERTAINTY_ASSIGNED_CONTEXT((#749)) GLOBAL_UNIT_ASSIGNED_CONTEXT
((#746,#747,#748)) REPRESENTATION_CONTEXT('Context #1',
  '3D Context with UNIT and UNCERTAINTY') );
#746 = ( LENGTH_UNIT() NAMED_UNIT(*) SI_UNIT(.MILLI.,.METRE.) );
#747 = ( NAMED_UNIT(*) PLANE_ANGLE_UNIT() SI_UNIT($,.RADIAN.) );
#748 = ( NAMED_UNIT(*) SI_UNIT($,.STERADIAN.) SOLID_ANGLE_UNIT() );
#749 = UNCERTAINTY_MEASURE_WITH_UNIT(LENGTH_MEASURE(5.E-05),#746,
  'distance_accuracy_value','confusion accuracy');
#750 = PRODUCT_RELATED_PRODUCT_CATEGORY('part',$,(#7));
#751 = MECHANICAL_DESIGN_GEOMETRIC_PRESENTATION_REPRESENTATION('',(#752)
  ,#745);
#752 = STYLED_ITEM('color',(#753),#15);
#753 = PRESENTATION_STYLE_ASSIGNMENT((#754,#760));
#754 = SURFACE_STYLE_USAGE(.BOTH.,#755);
#755 = SURFACE_SIDE_STYLE('',(#756));
#756 = SURFACE_STYLE_FILL_AREA(#757);
#757 = FILL_AREA_STYLE('',(#758));
#758 = FILL_AREA_STYLE_COLOUR('',#759);
#759 = COLOUR_RGB('',0.678431390124,0.709803936702,0.741176476869);
#760 = CURVE_STYLE('',#761,POSITIVE_LENGTH_MEASURE(0.1),#762);
#761 = DRAUGHTING_PRE_DEFINED_CURVE_FONT('continuous');
#762 = COLOUR_RGB('',9.803921802644E-02,9.803921802644E-02,
  9.803921802644E-02);
ENDSEC;
END-ISO-10303-21;
